<svg xmlns="http://www.w3.org/2000/svg" viewBox="0 0 1582.02 223.64"><g id="b0f49422-eaed-420d-8d45-b1f6df7ea6ee" data-name="图层 2"><g id="ae706641-5dc5-4fa7-9fae-98b559282a02" data-name="白色底-长-TRUEGREAT"><path d="M55.4,45.27H0L8.78,0H118l-8.53,45.27h0L75,219.59H21Z" style="fill:#185bab"/><path d="M191.21,0H263.5c43.92,0,77.7,15.54,77.7,58.11,0,60.81-49.32,85.81-101.34,85.81H216.21l-14.87,75.67H147.29Zm53.37,101.35c29.06,0,43.25-14.19,43.25-35.14,0-16.21-11.49-23.64-31.76-23.64H236.48L225,101.35Zm-10.13,29.73L273,95.94l48,123.65H264.18Z" style="fill:#185bab"/><path d="M379.71,0h54.06L410.12,118.24c-1.35,8.78-2.7,16.89-2.7,25,0,22.3,6.75,33.78,29.05,33.78,19.59,0,30.4-14.86,37.84-52.7L499.31,0H552L527,123c-13.51,68.92-41.89,100.67-91.89,100.67-54.73,0-81.76-25-81.76-79,0-10.13,2.71-25.67,4.73-37.16Z" style="fill:#185bab"/><path d="M585.11,0H718.89l-8.78,45.27H629.7l-7.43,38.51h68.24l-8.78,45.27H613.49L604,174.32h83.1l-8.78,45.27H541.19Z" style="fill:#185bab"/><polyline points="132.27 0 173.65 0 164.86 45.27 123.77 45.27" style="fill:#f16102"/><path d="M792.18,2.27h55.41l-8.79,99.32c-2.36,23-4.73,47-8.11,70.27h1.36c8.78-23.31,19.25-47.63,27.7-70.27L901.3,2.27h44.93v99.32c-.67,22.3-2,46.62-3.38,70.27h1.35c7.44-23.65,16.22-47.63,23-70.27l33.1-99.32h51.35l-83.1,219.59H900.29l2.7-93.92c0-13.17,2-34.46,3.72-51h-1.36c-5.74,16.22-12.83,34.12-19.25,51l-36.49,93.92H782.72Z" style="fill:#185bab"/><path d="M1097.58,2.27h64.86l21,219.59h-56.76l-3.38-116.21c-.67-21-1.35-40.54-1.35-62.84h-1.35c-8.78,21.62-16.22,41.89-25.68,62.84l-52.7,116.21H982.71Zm-45.95,129h102l-9.46,40.54h-102Z" style="fill:#185bab"/><path d="M1230.68,2.27h52l30.41,104.05,10.81,49.32h1.35c2-23.64,3.38-56.75,8.78-83.1l14.19-70.27h51.35l-43.91,219.59h-52l-30.41-104-10.13-49.33h-1.35c-2,25-4.06,56.08-9.46,82.43l-14.19,71h-51.35Z" style="fill:#185bab"/><path d="M1463.78,47.54h-55.41l8.79-45.27H1582l-8.79,45.27h-55.4l-34.46,174.32h-54Z" style="fill:#185bab"/></g></g></svg>