<?xml version="1.0" encoding="UTF-8"?>
<!DOCTYPE svg PUBLIC "-//W3C//DTD SVG 1.1//EN" "http://www.w3.org/Graphics/SVG/1.1/DTD/svg11.dtd">
<!-- Creator: CorelDRAW (评估版) -->
<svg xmlns="http://www.w3.org/2000/svg" xml:space="preserve" width="208mm" height="64mm" version="1.1" style="shape-rendering:geometricPrecision; text-rendering:geometricPrecision; image-rendering:optimizeQuality; fill-rule:evenodd; clip-rule:evenodd"
viewBox="0 700 3120 960"
 xmlns:xlink="http://www.w3.org/1999/xlink"
 xmlns:xodm="http://www.corel.com/coreldraw/odm/2003">
 <defs>
  <style type="text/css">
   <![CDATA[
    .fil5 {fill:none}
    .fil2 {fill:#FEFEFE}
    .fil7 {fill:#1C5FB5}
    .fil1 {fill:#FEFEFE;fill-rule:nonzero}
    .fil3 {fill:#1C5FB5;fill-rule:nonzero}
    .fil4 {fill:url(#id1)}
    .fil6 {fill:url(#id2)}
    .fil0 {fill:url(#id3)}
   ]]>
  </style>
   <clipPath id="id0">
    <path d="M1380.43 565.08c340.25,0 616.07,275.83 616.07,616.08 0,340.25 -275.82,616.08 -616.07,616.08 -340.26,0 -616.08,-275.83 -616.08,-616.08 0,-340.25 275.82,-616.08 616.08,-616.08z"/>
   </clipPath>
  <linearGradient id="id1" gradientUnits="userSpaceOnUse" x1="1922.94" y1="1711.99" x2="554.6" y2="1625.51">
   <stop offset="0" style="stop-opacity:1; stop-color:#1C5FB5"/>
   <stop offset="1" style="stop-opacity:1; stop-color:#6ADFE8"/>
  </linearGradient>
  <linearGradient id="id2" gradientUnits="userSpaceOnUse" x1="1379.8" y1="1417.77" x2="1379.8" y2="1181.16">
   <stop offset="0" style="stop-opacity:1; stop-color:#F5D541"/>
   <stop offset="0.145098" style="stop-opacity:1; stop-color:#A98F38"/>
   <stop offset="0.239216" style="stop-opacity:1; stop-color:#5D492F"/>
   <stop offset="0.341176" style="stop-opacity:1; stop-color:#A98F39"/>
   <stop offset="0.478431" style="stop-opacity:1; stop-color:#F5D544"/>
   <stop offset="0.811765" style="stop-opacity:1; stop-color:#9D7734"/>
   <stop offset="0.866667" style="stop-opacity:1; stop-color:#CAA948"/>
   <stop offset="1" style="stop-opacity:1; stop-color:#F8DB5C"/>
  </linearGradient>
  <linearGradient id="id3" gradientUnits="userSpaceOnUse" x1="2274.7" y1="1130.74" x2="489.05" y2="1225.9">
   <stop offset="0" style="stop-opacity:1; stop-color:#1B5EB5"/>
   <stop offset="1" style="stop-opacity:1; stop-color:#6ADFE8"/>
  </linearGradient>
 </defs>
 <g id="图层_x0020_1">
  <metadata id="CorelCorpID_0Corel-Layer"/>
  <path class="fil0" d="M1381.87 284.23c493.8,0 894.1,400.3 894.1,894.09 0,493.79 -400.3,894.09 -894.1,894.09 -493.79,0 -894.09,-400.3 -894.09,-894.09 0,-493.79 400.3,-894.09 894.09,-894.09zm0 278.31c340.08,0 615.78,275.7 615.78,615.78 0,340.08 -275.7,615.77 -615.78,615.77 -340.08,0 -615.77,-275.69 -615.77,-615.77 0,-340.08 275.69,-615.78 615.77,-615.78z"/>
  <path class="fil1" d="M742.51 1488.96c-5.6,-10.38 -14.35,-16.97 -22.01,-19.34l-33.64 18.15 14.29 26.49 12.19 -6.57 -7.12 -13.2 14.71 -7.93c2.95,1.13 5.91,4.22 7.82,7.74 7.93,14.71 2.18,27.44 -14.04,36.19 -16.02,8.63 -30.36,5.19 -37.04,-7.2 -3.65,-6.75 -3.21,-12.45 -1.69,-18.08l-13.71 -2.75c-2.33,7.5 -2.94,17.45 2.87,28.23 10.71,19.85 33.7,27.99 58.28,14.73 24.88,-13.42 30.01,-36.21 19.09,-56.46zm-29.54 -71.41c-6.66,-19.61 -21.48,-27.27 -48.1,-18.23l-44.15 15 5.23 15.39 45.56 -15.48c16.67,-5.66 24.35,-1.5 27.59,8.04 3.16,9.32 -0.47,17.08 -17.14,22.74l-45.55 15.47 5.45 16.04 44.14 -14.99c26.63,-9.05 33.6,-24.47 26.97,-43.98zm-65.04 -56.57c-9.13,-0.66 -19.04,-1.16 -28.52,-1.39l-0.12 -0.56c8.43,-4.22 17.47,-8.46 25.53,-12.84l8.52 -4.36 4.14 19.71 -9.55 -0.56zm49.21 19.61l-3.52 -16.8 -22.51 -1.36 -5.64 -26.89 20.06 -10.29 -3.64 -17.36 -77.3 44.05 4.09 19.49 88.46 9.16zm-17.11 -81.92l-2.23 -15.87 -33.62 4.72c-9.6,1.34 -19.95,4.06 -28.89,6.13l-0.08 -0.57 16.8 -11.02 41.41 -30.54 -2.38 -17 -83.88 11.75 2.22 15.87 33.52 -4.69c9.48,-1.33 20.38,-4.25 28.98,-6.26l0.07 0.57 -16.92 10.92 -41.28 30.63 2.4 17.12 83.88 -11.76zm-8.17 -121.06c-0.36,-11.79 -5.25,-21.6 -11.03,-27.14l-38.21 1.18 0.93 30.09 13.85 -0.43 -0.47 -14.99 16.7 -0.52c2.14,2.34 3.41,6.43 3.53,10.43 0.52,16.7 -10.31,25.51 -28.73,26.09 -18.19,0.56 -29.48,-8.94 -29.92,-23.01 -0.23,-7.66 2.71,-12.56 6.58,-16.92l-11.03 -8.59c-5.44,5.66 -10.44,14.29 -10.06,26.54 0.7,22.53 17.62,40.1 45.54,39.23 28.26,-0.87 43.04,-18.97 42.32,-41.96zm-0.79 -39.54l5.77 -60.38 -14.13 -1.35 -3.79 39.65 -56.29 -45.05 -10.14 -0.97 -5.38 56.29 14.13 1.35 3.4 -35.55 56.29 45.04 10.14 0.97zm6.78 -74.91l3.73 -16.52 -35.72 -8.08 7.06 -31.26 35.73 8.08 3.71 -16.42 -82.62 -18.67 -3.71 16.41 32.49 7.34 -7.06 31.26 -32.49 -7.34 -3.74 16.52 82.62 18.68zm32.21 -115.08c7.35,-21.19 -3.47,-41.31 -29.42,-50.32 -25.95,-9.01 -46.27,0.3 -53.63,21.49 -7.35,21.19 2.72,41.05 28.77,50.09 25.95,9.01 46.92,-0.06 54.28,-21.26zm-13.84 -4.8c-4.13,11.89 -17.68,15.67 -34.77,9.74 -17.19,-5.97 -24.83,-17.11 -20.7,-29 4.13,-11.9 17.02,-15.9 34.22,-9.93 17.08,5.93 25.37,17.29 21.25,29.19zm47.13 -74.59c9.32,-18.51 4.4,-34.44 -20.71,-47.09l-41.64 -20.97 -7.31 14.51 42.97 21.65c15.72,7.92 18.14,16.31 13.61,25.3 -4.43,8.8 -12.51,11.65 -28.23,3.73l-42.97 -21.65 -7.62 15.13 41.64 20.98c25.11,12.65 40.99,6.81 50.26,-11.59zm47.39 -87.13l10.01 -13.66 -68.33 -50.06 -10.01 13.66 68.33 50.06zm20.87 -30.91l10.46 -12.15 -25.74 -22.15c-7.35,-6.32 -16.22,-12.3 -23.67,-17.65l0.37 -0.44 19.37 5.34 50.27 10.96 11.2 -13.02 -64.19 -55.25 -10.46 12.15 25.65 22.07c7.26,6.25 16.64,12.51 23.83,17.64l-0.37 0.44 -19.38 -5.5 -50.26 -10.8 -11.27 13.1 64.19 55.26zm74.96 -80.93c14.05,-13.63 14.13,-30.14 4.49,-40.08 -8.53,-8.79 -17.92,-8.77 -28.26,-4.63l-11.24 4.36c-7.17,2.97 -12.95,5.55 -17.18,1.2 -3.9,-4.03 -2.85,-9.68 2.49,-14.86 5.02,-4.86 10.79,-6.96 17.76,-7.5l-1.25 -13.62c-9.79,-0.23 -19.56,3.83 -26.63,10.69 -12.32,11.96 -13.61,28.04 -3.97,37.98 8.61,8.87 19.55,7.83 28.18,4.39l11.48 -4.44c7.66,-2.96 12.71,-5.15 17.09,-0.63 4.15,4.27 3.41,10.25 -2.92,16.39 -5.34,5.18 -13.72,8.05 -21.98,8.25l1.15 15.15c11.41,-0.07 22.66,-4.76 30.79,-12.65zm43.54 -40.77l13.34 -10.43 -43.43 -55.54 18.93 -14.81 -8.74 -11.18 -51.03 39.91 8.74 11.18 18.75 -14.67 43.44 55.54zm43.2 -32.6l13.79 -9.85 -49.21 -68.93 -13.79 9.84 49.21 68.94zm45.17 -29.58l14.79 -8.27 -34.39 -61.55 20.99 -11.72 -6.93 -12.39 -56.55 31.6 6.92 12.39 20.78 -11.62 34.39 61.56zm77.57 -38.27c18.95,-8.37 25.28,-23.8 13.92,-49.52l-18.84 -42.65 -14.86 6.56 19.43 44.01c7.11,16.11 3.65,24.13 -5.57,28.2 -9,3.97 -17.05,1.04 -24.16,-15.06l-19.44 -44.02 -15.5 6.85 18.84 42.65c11.36,25.72 27.33,31.3 46.18,22.98zm64.08 -26.22l16.14 -5.13 -21.37 -67.2 22.91 -7.28 -4.3 -13.53 -61.74 19.64 4.3 13.52 22.69 -7.21 21.37 67.19zm52.01 -14.97l51.85 -11.97 -3.19 -13.83 -35.35 8.16 -5.1 -22.08 29 -6.7 -3.19 -13.82 -29 6.69 -4.38 -18.96 34.13 -7.88 -3.19 -13.83 -50.63 11.69 19.05 82.53zm114.98 -19.21l16.94 -0.2 -0.42 -34.34 30.1 -0.36 -0.17 -14.19 -30.1 0.36 -0.26 -21.98 35.25 -0.42 -0.17 -14.19 -52.19 0.63 1.02 84.69zm98.51 1.93c22.37,1.7 39.05,-13.91 41.12,-41.31 2.08,-27.39 -12.11,-44.65 -34.48,-46.34 -22.37,-1.7 -38.99,13.11 -41.07,40.62 -2.08,27.39 12.06,45.34 34.43,47.03zm1.1 -14.61c-12.55,-0.95 -19.66,-13.08 -18.3,-31.11 1.38,-18.15 10.19,-28.39 22.74,-27.44 12.56,0.95 19.72,12.4 18.35,30.55 -1.37,18.03 -10.23,28.95 -22.79,28zm52.64 18.4l16.72 2.75 5.2 -31.62 11.64 1.91 11.96 34.45 18.63 3.07 -13.9 -37.44c10.21,-2.14 17.82,-8.88 19.87,-21.38 3.16,-19.14 -9.71,-27.64 -27.22,-30.52l-29.14 -4.8 -13.76 83.58zm24.1 -42.09l4.18 -25.41 10.85 1.79c10.73,1.76 16.21,5.78 14.73,14.78 -1.46,8.88 -8.19,12.39 -18.92,10.63l-10.84 -1.79zm97 69.13l15.93 5.76 28.78 -79.66 -15.93 -5.76 -28.78 79.66zm35.51 11.42l14.55 6.72 14.24 -30.82c4.06,-8.8 7.37,-18.98 10.48,-27.61l0.52 0.24 0.17 20.09 3.27 51.35 15.58 7.2 35.52 -76.9 -14.55 -6.72 -14.19 30.73c-4.01,8.69 -7.46,19.43 -10.42,27.75l-0.52 -0.24 -0.03 -20.14 -3.41 -51.29 -15.69 -7.25 -35.52 76.89zm90 43.59l17.43 10.33 65.43 -59.68 -14.77 -8.76 -30.49 29.9c-7.04,6.72 -12.92,13.05 -20.12,19.81l-0.49 -0.29c2.57,-9.5 5.3,-17.7 7.81,-27.1l11.39 -41.22 -15.26 -9.05 -20.93 86.06zm47.4 28.46l43.84 30.18 8.05 -11.69 -29.89 -20.57 12.85 -18.67 24.51 16.88 8.05 -11.7 -24.51 -16.87 11.03 -16.03 28.85 19.86 8.05 -11.69 -42.8 -29.46 -48.03 69.76zm74.28 59.06c14.63,12.99 31.11,11.86 40.3,1.5 8.13,-9.16 7.42,-18.52 2.53,-28.53l-5.19 -10.88c-3.49,-6.93 -6.5,-12.5 -2.47,-17.04 3.73,-4.19 9.44,-3.56 15,1.38 5.22,4.64 7.75,10.24 8.8,17.15l13.49 -2.25c-0.5,-9.78 -5.27,-19.23 -12.64,-25.77 -12.83,-11.4 -28.97,-11.5 -38.17,-1.14 -8.21,9.24 -6.35,20.08 -2.29,28.43l5.28 11.12c3.52,7.41 6.08,12.29 1.9,16.99 -3.95,4.46 -9.97,4.16 -16.56,-1.69 -5.56,-4.94 -9.04,-13.08 -9.85,-21.3l-15.03 2.26c0.92,11.38 6.43,22.24 14.9,29.77zm44.51 39.79l11.79 12.15 50.61 -49.09 16.73 17.25 10.19 -9.89 -45.11 -46.49 -10.19 9.88 16.58 17.09 -50.6 49.1zm38.08 38.76l8.7 12.49 28.99 -20.19c6.56,-4.56 15.44,-12.41 21.52,-17.63l0.27 0.38 -12.44 16.89 -21.65 31.1 5.56 7.99 36.62 -9.6 20.22 -5.71 0.33 0.47c-7.07,3.81 -17.45,9.5 -23.99,14.05l-29.02 20.2 8.83 12.68 69.52 -48.39 -10.73 -15.41 -40.59 11.11c-5.35,1.49 -10.79,3.47 -16.24,5.02l-0.32 -0.46c3.42,-4.48 7.09,-8.99 10.35,-13.49l24.31 -34.49 -10.73 -15.41 -69.51 48.4zm55.28 79.93l26.8 45.98 12.26 -7.14 -18.27 -31.35 19.58 -11.41 14.99 25.71 12.26 -7.15 -14.99 -25.71 16.81 -9.8 17.64 30.26 12.26 -7.14 -26.16 -44.9 -73.18 42.65zm34.35 60.78l6.59 14.61 30.95 -13.98c8.83,-3.98 18,-9.5 26,-14l0.24 0.53 -13.02 15.29 -31.17 40.95 7.07 15.65 77.2 -34.86 -6.6 -14.6 -30.84 13.92c-8.73,3.94 -18.37,9.8 -26.06,14.15l-0.23 -0.52 13.17 -15.24 31.01 -41 -7.11 -15.75 -77.2 34.85zm38.2 94.44l5.13 16.15 67.19 -21.37 7.29 22.9 13.52 -4.3 -19.63 -61.73 -13.53 4.3 7.22 22.69 -67.19 21.36zm71.42 110.7c9.03,1.45 18.86,2.81 28.29,3.87l0.06 0.57c-8.76,3.47 -18.13,6.9 -26.55,10.56l-8.87 3.6 -2.4 -20 9.47 1.4zm-47.32 -23.83l2.05 17.05 22.3 3.32 3.27 27.27 -20.88 8.5 2.11 17.62 80.85 -37.15 -2.37 -19.77 -87.33 -16.84zm9.67 83.13l0.75 24.14c0.77,24.94 15.46,40.51 43.89,39.63 28.54,-0.89 41.54,-17.32 40.74,-43.18l-0.72 -23.22 -84.66 2.63zm14.14 16.51l57.43 -1.79 0.16 5.27c0.49,15.78 -6.96,25.86 -27.63,26.51 -20.55,0.64 -29.31,-8.94 -29.8,-24.73l-0.16 -5.26zm-14.14 78.08l-1.53 20.21 82.5 32.19 1.3 -17.12 -40.31 -14.07c-9.14,-3.34 -17.43,-5.8 -26.68,-9.26l0.04 -0.57c9.66,-1.91 18.22,-3.09 27.76,-5.01l41.99 -8.07 1.35 -17.69 -86.42 19.39zm-5.27 55.02l-2.01 16.82 84.09 10.1 2.02 -16.82 -84.1 -10.1zm-12.89 61.07c-4.31,19.09 4.64,32.96 18.14,36.01 11.95,2.71 19.8,-2.44 26.21,-11.56l7.02 -9.79c4.38,-6.4 7.81,-11.73 13.73,-10.39 5.47,1.23 7.68,6.54 6.03,13.8 -1.53,6.81 -5.23,11.73 -10.77,15.99l8.49 10.72c8.33,-5.16 14.29,-13.9 16.46,-23.5 3.79,-16.75 -3.92,-30.93 -17.43,-33.99 -12.05,-2.72 -20.65,4.14 -26,11.73l-7.19 9.99c-4.79,6.66 -7.82,11.26 -13.96,9.87 -5.81,-1.31 -8.46,-6.72 -6.51,-15.32 1.64,-7.26 7.09,-14.24 13.9,-18.92l-9.25 -12.06c-9.52,6.29 -16.37,16.36 -18.87,27.42zm-22.07 75.76c-7.62,21.1 2.95,41.35 28.79,50.68 25.84,9.34 46.27,0.29 53.89,-20.81 7.62,-21.1 -2.2,-41.08 -28.14,-50.45 -25.84,-9.34 -46.91,-0.52 -54.54,20.58zm13.78 4.98c4.28,-11.85 17.87,-15.45 34.88,-9.31 17.12,6.19 24.62,17.42 20.35,29.26 -4.28,11.84 -17.23,15.68 -34.35,9.5 -17.01,-6.15 -25.16,-17.61 -20.88,-29.45zm-31.11 46.12l-7.62 15.13 28.62 14.42 -5.3 10.53 -36.45 1.12 -8.49 16.87 39.88 -2.09c-1.01,10.39 3.15,19.66 14.46,25.36 17.33,8.72 29.28,-1.02 37.26,-16.86l13.29 -26.37 -75.65 -38.11zm32.96 35.57l23 11.59 -4.94 9.81c-4.89,9.71 -10.36,13.75 -18.51,9.65 -8.04,-4.05 -9.38,-11.52 -4.49,-21.23l4.94 -9.82z"/>
  <circle class="fil2" cx="824.32" cy="1687.87" r="37.71"/>
  <circle class="fil2" cx="1941.27" cy="1687.87" r="37.71"/>
  <path class="fil3" d="M1230.31 1664.23l63.28 0 0 -15.82 -20.67 0c-4.46,0 -10.72,0.51 -15.44,1.02 16.85,-17.61 31.65,-34.19 31.65,-50.27 0,-17.35 -11.87,-28.71 -29.73,-28.71 -12.89,0 -21.31,5.11 -29.99,14.42l10.21 10.21c4.85,-5.23 10.46,-9.83 17.35,-9.83 9.06,0 14.17,5.62 14.17,14.93 0,13.65 -16.21,29.73 -40.83,53.21l0 10.84zm113.09 1.79c19.4,0 31.9,-16.97 31.9,-48.23 0,-31.01 -12.5,-47.34 -31.9,-47.34 -19.39,0 -32.02,16.21 -32.02,47.34 0,31.26 12.63,48.23 32.02,48.23zm0 -14.67c-8.16,0 -14.29,-7.92 -14.29,-33.56 0,-25.52 6.13,-32.66 14.29,-32.66 8.17,0 14.17,7.14 14.17,32.66 0,25.64 -6,33.56 -14.17,33.56zm48.79 12.88l63.29 0 0 -15.82 -20.67 0c-4.47,0 -10.72,0.51 -15.44,1.02 16.84,-17.61 31.64,-34.19 31.64,-50.27 0,-17.35 -11.86,-28.71 -29.73,-28.71 -12.88,0 -21.3,5.11 -29.98,14.42l10.21 10.21c4.85,-5.23 10.46,-9.83 17.35,-9.83 9.06,0 14.16,5.62 14.16,14.93 0,13.65 -16.2,29.73 -40.83,53.21l0 10.84zm110.42 1.79c17.99,0 33.17,-9.83 33.17,-26.67 0,-12.12 -8.16,-19.9 -18.75,-22.71l0 -0.64c9.82,-3.95 15.69,-10.84 15.69,-20.8 0,-15.82 -12.37,-24.75 -30.62,-24.75 -11.1,0 -20.16,4.6 -28.33,11.74l9.57 11.48c5.62,-5.23 11.1,-8.42 17.87,-8.42 8.03,0 12.63,4.21 12.63,11.36 0,7.91 -5.62,13.65 -22.97,13.65l0 13.53c20.54,0 26.03,5.48 26.03,14.41 0,7.91 -6.51,12.51 -16.08,12.51 -8.55,0 -15.43,-4.21 -21.05,-9.7l-8.8 11.87c6.63,7.52 16.71,13.14 31.64,13.14z"/>
  <g>
  </g>
  <g style="clip-path:url(#id0)">
   <g id="_1664137115136">
    <path class="fil4" d="M872.04 1465.54l-329.94 339.19 -3.48 -3.39 326.65 -335.8 6.77 0zm1067.1 0l-395.33 406.41 -3.48 -3.38 392.04 -403.03 6.77 0zm-39.52 0l-392.91 403.92c-1.16,-1.12 -2.32,-2.25 -3.48,-3.38l389.62 -400.54 6.77 0zm-39.52 0l-390.49 401.43c-1.16,-1.12 -2.32,-2.25 -3.48,-3.38l387.2 -398.05 6.77 0zm-39.52 0l-388.07 398.94c-1.16,-1.12 -2.32,-2.25 -3.48,-3.38l384.78 -395.56 6.77 0zm-39.53 0l-385.64 396.45c-1.16,-1.12 -2.32,-2.25 -3.48,-3.38l382.35 -393.07 6.77 0zm-39.52 0l-383.22 393.96c-1.16,-1.12 -2.32,-2.25 -3.48,-3.38l177.21 -182.18c6.9,-3.98 12.59,-9.56 16.18,-16.63l186.54 -191.77 6.77 0zm-39.52 0l-153.21 157.5c-0.72,-1.53 -1.55,-3 -2.48,-4.41l148.92 -153.09 6.77 0zm-208.83 214.68l-171.97 176.79c-1.16,-1.12 -2.32,-2.25 -3.48,-3.38l169.84 -174.6c1.84,0.48 3.71,0.88 5.61,1.19zm169.31 -214.68l-114.78 117.99c-0.51,-1.76 -1.13,-3.44 -1.87,-5.04l109.88 -112.95 6.77 0zm-207.93 213.76l-170.45 175.22c-1.16,-1.12 -2.32,-2.25 -3.48,-3.38l167.16 -171.84 6.77 0zm168.41 -213.76l-93.37 95.98c-1.49,-0.81 -3.04,-1.54 -4.64,-2.19l91.23 -93.79 6.78 0zm-145.66 149.74l-17.78 18.27c-0.83,-0.14 -1.67,-0.21 -2.54,-0.21l-2.29 0c1.27,-1.8 2.48,-3.64 3.62,-5.5l19.14 -19.68c-0.1,0.69 -0.15,1.39 -0.15,2.1l0 5.02zm-62.28 64.02l-168.02 172.73c-1.16,-1.12 -2.32,-2.25 -3.48,-3.38l164.73 -169.35 6.77 0zm168.41 -213.76l-87.99 90.46c-3.07,0.47 -6.03,1.21 -8.9,2.19l90.12 -92.65 6.77 0zm-201.9 207.57l-171.63 176.43c-1.16,-1.12 -2.32,-2.25 -3.48,-3.38l172.82 -177.66c0.5,1.67 1.28,3.23 2.29,4.61zm162.38 -207.57l-94.74 97.39c-1.38,-0.92 -2.81,-1.76 -4.32,-2.52l92.29 -94.87 6.77 0zm-140.66 144.6l-11.45 11.77c0.05,-1.38 0.07,-2.76 0.07,-4.12 0,-0.96 -0.01,-1.91 -0.03,-2.87l5.62 -5.78c1.79,0.7 3.72,1.04 5.79,1zm-68.01 69.92l-162.44 167c-1.16,-1.13 -2.32,-2.26 -3.48,-3.39l160.63 -165.13c1.71,0.62 3.48,1.13 5.29,1.52zm169.15 -214.52l-87.69 90.15c-2.89,0.29 -5.63,0.81 -8.26,1.53l89.18 -91.68 6.77 0zm-193.51 198.93l-0.75 0.78c0.02,-0.34 0.03,-0.68 0.03,-1.02l0 -0.72c0.24,0.33 0.48,0.65 0.72,0.96zm-14.36 14.76l-160.82 165.33c-1.16,-1.12 -2.32,-2.25 -3.48,-3.38l157.46 -161.88 5.41 0c0.48,0 0.96,-0.02 1.43,-0.07zm168.35 -213.69l-94.93 97.58c-1.35,-0.96 -2.76,-1.84 -4.21,-2.63l92.36 -94.95 6.78 0zm-207.94 213.76l-158.33 162.77c-1.16,-1.12 -2.32,-2.25 -3.48,-3.38l155.04 -159.39 6.77 0zm37.94 -45.96l3.53 -3.62c0.14,1.37 0.31,2.74 0.51,4.11 -1.22,-0.32 -2.5,-0.49 -3.82,-0.49l-0.22 0zm130.47 -167.8l-87.97 90.44c-3.24,0.52 -6.35,1.39 -9.3,2.6l90.5 -93.04 6.77 0zm-203.9 209.62l-159.94 164.43c-1.16,-1.13 -2.32,-2.26 -3.48,-3.39l160.46 -164.95c0.77,1.46 1.77,2.78 2.96,3.91zm81.88 -91.14l0.65 -0.66 -0.49 1.15 -0.16 -0.49zm82.5 -118.48l-96.29 99c-1.3,-1 -2.67,-1.92 -4.09,-2.77l93.61 -96.23 6.77 0zm-139.95 143.88l-221.47 227.68c-1.16,-1.13 -2.32,-2.26 -3.48,-3.39l217.66 -223.76c0.91,0.15 1.85,0.21 2.82,0.19 1.58,-0.03 3.07,-0.27 4.47,-0.72zm100.43 -143.88l-87.42 89.87c-2.61,0.09 -5.1,0.33 -7.49,0.74l88.14 -90.61 6.77 0zm-126.24 129.78l-232.76 239.29c-1.16,-1.13 -2.32,-2.26 -3.48,-3.39l233.43 -239.98c0.69,1.47 1.62,2.85 2.81,4.08zm86.72 -129.78l-356.58 366.58c-1.16,-1.13 -2.32,-2.26 -3.48,-3.39l353.28 -363.19 6.78 0zm-39.53 0l-354.15 364.09c-1.16,-1.13 -2.32,-2.26 -3.48,-3.39l350.86 -360.7 6.77 0zm-39.52 0l-351.73 361.6c-1.16,-1.13 -2.32,-2.26 -3.48,-3.39l348.44 -358.21 6.77 0zm-39.52 0l-349.31 359.11c-1.16,-1.13 -2.32,-2.26 -3.48,-3.39l346.02 -355.72 6.77 0zm-39.52 0l-346.9 356.62c-1.15,-1.13 -2.31,-2.26 -3.48,-3.39l343.6 -353.23 6.78 0zm-39.52 0l-344.47 354.13c-1.16,-1.13 -2.33,-2.26 -3.48,-3.39l341.17 -350.74 6.78 0zm-39.53 0l-342.04 351.64c-1.17,-1.13 -2.33,-2.26 -3.48,-3.39l338.75 -348.25 6.77 0zm-39.52 0l-339.63 349.15c-1.15,-1.13 -2.31,-2.26 -3.48,-3.39l336.34 -345.76 6.77 0zm-39.52 0l-337.21 346.66c-1.15,-1.13 -2.32,-2.26 -3.48,-3.39l333.92 -343.27 6.77 0zm-39.52 0l-334.79 344.17c-1.16,-1.13 -2.32,-2.26 -3.48,-3.39l331.49 -340.78 6.78 0zm-39.53 0l-332.36 341.68c-1.16,-1.13 -2.32,-2.26 -3.48,-3.39l329.07 -338.29 6.77 0z"/>
   </g>
  </g>
  <path class="fil5" d="M1380.43 565.08c340.25,0 616.07,275.83 616.07,616.08 0,340.25 -275.82,616.08 -616.07,616.08 -340.26,0 -616.08,-275.83 -616.08,-616.08 0,-340.25 275.82,-616.08 616.08,-616.08z"/>
  <path class="fil2" d="M984.64 1787.96c0.74,-0.49 0.24,-0.27 0.98,-0.01 0.23,0.07 2.04,0.31 2.66,0.58 1.18,0.53 2.3,2.29 2.18,3.28 -1,0.57 -0.73,-0.01 -1.59,-0.67 -1.37,-1.04 -2.56,-1.25 -4.23,-3.18zm-95.64 43.49l1.11 1.79c0.7,0 0.56,-0.15 1.1,-0.31 0.61,-0.17 0.61,0.13 1.21,0.28 1.28,0.33 1.62,-1.17 4.69,-0.84 0.85,0.09 1.55,0.29 2.43,0.43 1.07,-0.78 0.93,-0.7 1.98,-0.59 2.48,0.27 1.64,0.65 4.07,-0.54 1.13,-0.55 1.18,-0.73 2.18,-1.57 1.07,0.14 1.02,0.1 2.17,-0.17 0.77,-0.17 1.44,-0.23 2.32,-0.24 1.42,-1.12 2.92,-1.61 4.51,-1.9l3.32 -0.25c0.97,0.04 0.95,0.68 1.95,0.1 1.98,-1.13 0.88,-0.36 3.17,0.09 2.18,-1.81 2.52,-3.29 5.77,-2.92 1.22,0.13 1.2,0.2 2.45,-0.12 1.41,-0.36 1.68,-1.05 2.64,-1.41 1.67,-0.63 1.46,-0.77 2.5,-1.21 1.74,-0.74 1.72,-1.81 3.92,-2.46 2.66,-0.8 2.96,-0.82 5.15,-2.81l9.26 -9.32c0.8,-0.72 1.17,-1.98 3.89,-4.45 0.25,-0.22 0.54,-0.42 0.72,-0.7 0.43,-0.67 0.79,-1.47 1.58,-2.16 2.81,-2.47 2.43,-3.57 4.32,-1.42 1.33,-0.07 2.53,0.28 3.82,0.71 0.84,0.29 1.12,0.31 1.91,1.01 0.6,0.53 1.2,0.6 2.01,1.23l1.9 1.14c0.6,0.36 1.08,0.97 1.89,1.43 0.8,0.45 3.12,0.56 3.86,1.81 0.36,0.61 0.56,1.51 0.95,2 1.05,1.3 3.89,2.61 5.56,4.04 1.2,1.03 2.48,1.84 3.76,2.79 0.71,0.52 1.14,1 1.88,1.49 1.07,0.71 1.19,0.12 1.47,1.41 0.92,0.31 1.56,1.11 2.27,1.91 1.28,1.43 1.03,0.85 1.48,2.5 0.34,1.22 0.37,1.33 1.35,2.39 1.15,1.26 0.81,1.47 1.36,2.49 0.83,0 0.28,0.12 1.09,-0.21 0.86,-0.35 1.59,0.33 2.45,0.04 0.68,-0.23 0.52,-0.18 1.19,-0.16l4.99 -4.18c0.48,-0.69 0.55,-1.1 0.83,-1.78 0.22,-0.55 0.86,-1.14 1.08,-1.66l0.83 -2.53c0.35,-0.85 0.01,-1.72 0.51,-2.68l0.8 0.47c0.95,-0.86 1.56,-1.17 0.38,-3.45 -0.78,-1.5 -1.38,-1.38 -2.27,-2.1 0.14,-1.04 0.28,-0.61 0.52,-1.4 -0.67,-0.85 -0.32,-0.19 -1.01,-0.7 -0.26,-0.2 -0.27,-0.31 -0.6,-0.52 -0.47,-0.3 -0.06,0.03 -0.57,-0.27l0.35 -1.39c-0.93,-0.85 -1.54,-0.73 -2.27,-1.52 -0.39,-0.43 -0.72,-0.67 -1.2,-0.99 -0.45,-0.31 -3.45,-1.03 -5.81,-3.14l0.54 -1.05c0.65,-1.22 0.81,-2.09 1.24,-3.36 0.52,-1.56 0.03,-2.95 0.91,-4.48 -0.23,-0.49 -0.44,-0.62 -0.45,-1.12 0,-0.52 0.18,-0.73 0.16,-1.22 -0.02,-0.79 -0.23,-0.34 0.21,-1.21 0.23,-0.45 0.32,-0.63 0.83,-1.2 0.01,-0.42 0.01,-1.31 0.09,-1.68 0.32,-1.47 -0.03,-0.57 -0.46,-1.74 -0.49,-1.35 -0.31,-2.34 -0.91,-3.59 1.35,-2.12 -0.8,-2.9 -1.24,-3.26 -2.5,-2.03 -2.84,-1.58 -3.8,-2.16 -0.72,-0.43 -0.22,-0.39 -1.21,-0.41 -0.47,-0.01 -0.86,-0.04 -1.32,-0.03 -1.51,1.1 -0.31,2.12 -0.9,3.24 -0.3,0.56 -0.89,0.95 -1.23,1.53 -0.23,0.38 -0.03,0.21 -0.45,0.84 -0.24,0.35 -0.26,0.38 -0.41,0.82 -0.36,1.06 -1.16,2.09 -1.5,3.23 -0.78,2.54 -1.26,2.52 -3.88,3.19l-3.32 0.53c-0.32,0.04 -0.64,0.12 -0.87,0.15 -0.26,0.04 -0.59,0.01 -0.85,0.03l-3.31 0.07c-1.16,-0.13 -0.67,0.01 -1.67,-0.72 -0.21,-0.15 -0.52,-0.25 -0.84,-0.37l-2.38 -1.25c-0.58,-0.24 -1.05,-0.55 -1.64,-0.88l-1.58 -0.7c-0.43,-0.23 -0.43,-0.41 -0.81,-0.63 -0.01,-0.01 -0.8,-0.35 -0.85,-0.37l-4.8 -1.84c-0.29,-0.11 -0.51,-0.23 -0.84,-0.36l-4.09 -1.24c-0.46,-0.08 -0.33,0.02 -0.73,-0.07 -2.39,-0.55 -4.03,-1.64 -6.64,-1.79 -0.28,-0.01 -0.59,0 -0.85,0 -0.63,0 -1.06,-0.15 -1.73,0.14 -0.42,1.06 -0.88,3.43 -0.6,4.49 0.41,1.51 1.25,2.78 1.4,4.72 0.31,3.82 0.69,2.56 -1.08,4.34l-4.64 4.42c-0.37,0.44 -0.2,0.5 -0.56,1.08 -0.51,0.82 -0.49,0.44 -0.97,0.85 -0.31,0.27 -1.03,1.46 -1.77,2.13 -1.98,1.77 -2.36,2.57 -4.56,3.97 -0.6,0.38 -0.55,0.12 -1.13,0.44 -0.47,0.26 -0.45,0.59 -1.01,1.07 -0.81,0.67 -0.39,0.03 -1.13,0.54 -0.57,0.4 -0.55,0.68 -1.28,0.95 -0.77,0.29 -1.55,0.53 -2.36,1.03 -1.29,0.79 -1,0.45 -2.42,1.63 -0.38,0.32 -0.72,0.52 -1.14,0.79 -0.64,0.43 -0.64,0.29 -1.11,0.47 -0.54,0.22 -0.56,0.47 -1.14,0.69l-5.98 2.27c-0.74,0.31 -1.5,0.41 -2.36,0.83 -0.82,0.4 -1.51,0.21 -2.36,0.74 -1.36,0.86 -4.26,2 -5.88,2.65l-8.31 2.48c-1.3,0.43 -1.31,0.76 -2.4,1.36 -1.55,0.84 -3.14,2.1 -4.77,2.72 -2.77,1.06 -2.76,2.23 -3.47,3.35l-1.76 2.6c-0.45,0.6 -0.73,2.07 -0.8,2.87z"/>
  <path class="fil2" d="M1155.44 1944.46c-1.85,-0.08 -3.09,-3.02 -4.19,-3.87 -1.24,-0.97 -0.03,-0.17 -1,-3.05 -0.3,-0.9 -0.69,-1.41 -0.91,-2.28l-0.86 -2.17c-0.33,-0.91 -0.81,-0.94 -0.97,-2.23 0.37,-0.93 1.07,-0.85 1.84,-1.49 0.88,-0.72 1.24,-0.63 1.98,-1.23 0.87,-0.71 2.45,-2.24 3.76,-3.11 1.34,-0.9 0.79,-0.81 1.9,-1.37l3.62 -3.12c0.55,-0.55 1.25,-1.48 2.15,-0.93 -0.15,1.14 -1.88,6.15 -2.3,7.73 -0.1,0.37 -0.46,0.94 -0.65,1.39 -1.02,2.39 -1.6,8.12 -1.95,9.35 -0.38,1.31 -1.75,5.77 -2.42,6.38zm50.73 -4.64l-3.43 -7.28c-0.25,-0.54 -0.4,-1.25 -0.63,-1.87 -0.18,-0.46 -0.31,-0.42 -0.45,-0.86l-0.71 -1.97c-0.5,-1.8 -0.45,-0.5 -1.36,-2.72 0.71,-0.6 0.89,-0.42 1.93,-0.46 1.07,-0.04 5.41,0.6 6.7,-0.14 1,0.28 0.67,0.35 1.54,0.2l3.09 0.15c0.52,0.04 1.14,-0.14 1.39,0.38 0.48,1.93 -1.83,6.48 -2.64,8.56 -0.38,0.97 -1.53,2.5 -2.11,3.38 -0.5,0.77 -1.91,2.49 -2.48,2.9l-0.84 -0.27zm-25.06 -16.6c2.4,0.79 4.56,0.95 7.04,1.21 0.68,0.08 0.47,-0.05 1.26,0.05 0.94,0.12 1.65,-0.16 2.35,0.06l0.78 0.29c-0.23,1.95 1.62,11.17 2.57,13.34 0.91,2.08 1.12,4.49 1.89,6.57 0.52,1.41 0.84,1.5 -1.39,2.35 -3.77,1.44 -0.83,1.1 -6.19,1.82 -0.98,0.13 -2.13,-0.04 -3.12,0.06 -1,0.09 -2.01,-0.06 -3.1,0.09 -1.2,0.16 -2.02,-0.1 -3.32,-0.38 -1.79,-0.39 -1.57,0.04 -2.57,-1.4 -0.52,-0.75 -0.3,-0.39 -0.58,-1.21 -0.21,-0.61 -0.46,-0.84 -1.13,-0.97 -0.12,0.82 0.78,1.78 -0.05,2.89 -0.63,0.84 -1.67,1.1 -1.48,2.57 0.09,0.74 0.56,2.09 1.15,2.69 0.35,0.36 0.94,0.59 1.35,0.96 0.42,0.39 0.69,0.76 1.26,1 1.1,0.48 2.25,1.1 3.33,1.47 1.05,0.36 3,0.78 3.78,1.38 1.69,1.31 1.54,0.42 3.1,0.89 1.04,0.31 2.95,0.88 3.87,1.34 -0.21,0.94 -0.28,0.38 -0.7,1.19 1.75,0.82 5.48,-0.69 6.99,-1.09l3.94 -1.88c1.27,0.41 1.59,1.31 2.7,1.95 0.95,0.55 0.48,0.44 1.09,1.1 0.4,0.44 0.75,0.71 1.36,1.09 1.66,1.03 4.15,5.55 5.74,7.22 1.28,1.36 1,1.08 2.97,1.92 1.09,0.46 4.5,3.25 5.6,3.96 2.88,-0.63 3.44,1.12 5,0.81 0.48,-0.1 1.09,-0.21 1.49,-0.3 1.58,-2.6 3.63,-1.82 6.07,-1.02 1.16,-0.72 2.36,-0.61 4.02,-0.15l1.05 -0.52 0.33 -0.87c-0.74,-0.81 -1.65,-2.55 -2.48,-3.24 -0.34,-0.28 -0.52,-0.35 -0.87,-0.65 -0.34,-0.3 -0.49,-0.42 -0.77,-0.7 -0.5,-0.5 -1.04,-1 -1.55,-1.55 -0.48,-0.53 -0.69,-0.97 -1.32,-1.53 -1.36,-1.19 -0.28,-0.72 -3.25,-3.01 -0.34,-0.26 -1.65,-1.23 -1.79,-1.42 -0.2,-0.26 -0.2,-0.53 -0.49,-0.85l-2.75 -2.02c-3.61,-2.97 -4.73,-4.22 -7.53,-7.56 -1.22,-1.46 -1.29,-1.86 -0.02,-3.11 0.65,-0.63 1.4,-1.76 2.1,-2.34 2.5,-2.08 5.9,-6.78 5.87,-10.18 -0.03,-3.29 2.5,-2.14 0.93,-7.85 -0.23,-0.82 -0.56,-0.43 -0.29,-1.53 1.07,-0.93 1.3,-0.37 2.74,-0.35 1.91,0.03 3.65,0.83 4.68,0.88 0.5,0.03 1.15,0.13 1.57,0.13 1.02,-0.02 2.1,0.06 3.24,0.46 1.15,0.41 0.8,0.16 1.44,0.18 0.83,0.02 1.02,0.45 1.54,0.68 0.49,0.23 2.43,0.33 3.14,0.46 1.96,0.36 2.73,-1.08 4.45,-1.22l0.79 -0.17 -0.38 -0.65c0.21,-1.05 0.39,-1.97 1.15,-2.37 -0.54,-1.14 -0.31,-1.13 -0.6,-1.9l-0.72 -1.28c-0.2,-0.47 0.01,-0.15 -0.28,-0.41 -0.7,-0.63 -1.12,-0.46 -1.36,-1.5 -0.24,-1.02 -0.74,-1.05 -1.84,-1.4l-3.68 -1.21c-0.51,0.32 -1.2,0.52 -1.97,0.57 -0.76,0.05 -0.51,0.02 -1.34,-0.22 -1,-0.29 -0.55,0.03 -1.26,-0.06 -0.69,-0.1 -1.29,-0.42 -1.98,-0.39l-6.92 -0.46c-0.51,0.01 -0.75,-0.19 -1.34,-0.19 -2.3,0.01 -8.81,-1.2 -10.06,-0.7 -1.63,0.64 -2.35,-0.25 -3.78,-0.17 -0.7,0.03 -0.71,-0.17 -1.33,-0.19 -0.65,-0.02 0.07,0.07 -0.5,0.06l-3.27 -0.23c-0.5,-0.01 -0.56,0 -1.26,-0.05 -1.09,-0.08 -4.15,0 -5.17,-0.46 0.73,-0.78 1.65,-0.19 3.35,-0.71l3.48 -0.96c1.36,-0.02 0.72,0.81 4.76,-0.61 0.33,-0.11 0.65,-0.2 1.06,-0.33 3.73,-1.2 3.77,-0.55 4.83,-0.73 1.23,-0.22 2.09,-0.74 3.3,-1.03 0.45,-0.11 0.67,-0.2 1.1,-0.27 0.62,-0.1 0.78,0.01 1.35,-0.03 2.52,-0.18 0.9,-0.29 3.8,-0.06l2.65 0.09c0.34,0.01 0.79,-0.09 1.16,-0.13 0.43,-0.04 1.29,0.18 2.64,0.09 0.34,-0.02 0.92,-0.1 1.19,-0.06 1.66,0.2 3.33,0.35 4.96,0.87 0.6,0.18 0.83,0.1 1.26,0.07 0.03,-0.86 -0.21,-0.13 -0.01,-0.86l3.44 -0.21c0.55,0.06 0.68,-0.02 1.21,-0.15l-0.18 -0.21c-0.02,-0.02 -0.07,-0.08 -0.09,-0.1l-0.17 -0.2c1.09,-0.97 1.03,-0.77 2.17,-1.1l0.24 -0.65c-1.18,-1.18 -0.37,-0.7 -0.69,-1.86 -0.69,-2.56 -3.5,-3.79 -5.55,-5.13 -1.24,-0.8 -1.18,-1.59 -3.06,-1.39 -0.81,0.08 -4.03,-0.1 -4.67,-0.72 -0.25,-0.52 3.46,-7.79 4.28,-9 0.35,-0.52 0.69,-0.63 0.98,-1.06l0.58 -3.14 -0.93 -2.54c-0.83,-1.19 -1.41,-2.31 -2.66,-3.18 -0.92,-0.63 -0.67,-1.59 -0.96,-2.51 -0.8,-0.28 -1.22,-0.19 -1.97,-0.11 -0.17,0.02 -0.46,0.07 -0.64,0.07 -0.27,0.32 -0.87,0.89 -1.22,1.12 -0.3,0.21 -0.46,0.2 -0.75,0.38 -0.24,0.15 -0.39,0.31 -0.7,0.53 -0.9,0.66 -0.49,0.48 -1.66,0.5 -2.03,0.03 -0.51,0.5 -3.37,-0.44 -0.85,-0.29 -1.05,0.02 -2.24,-0.38 -1.68,-0.55 -3.67,-1.48 -5.41,-1.53 -0.73,-0.02 -1.21,-0.37 -1.91,-0.51 -0.67,-0.14 -0.7,0.06 -1.58,-0.17 -0.71,-0.18 -0.98,-0.11 -1.74,-0.17 -0.83,-0.06 -0.51,0.11 -1.6,-0.2 -1.08,-0.31 -0.66,0.13 -1.67,-0.09 -0.56,-0.13 -0.16,-0.17 -0.73,-0.32 -0.62,-0.17 -0.36,0.06 -0.8,0.04 -0.76,-0.05 -0.75,-0.51 -1.06,-1.02l-2.29 -0.78c-0.93,0.57 -1.24,1.65 -1.9,2.77 -0.27,0.46 -0.61,1.15 -0.87,1.54 -0.28,0.43 -0.81,0.81 -1.1,1.34 -0.09,0.85 0.16,0.52 -0.2,1.75l-2.01 6.25c-0.54,1.32 -1.04,4.59 -1.36,6.11 -0.16,0.76 -0.58,0.69 -1.36,3.05 0.93,1.53 1.22,4.01 0.62,5.86l1.18 2.35c0.24,0.88 0.17,1.99 0.88,2.64 0.49,0.33 1.98,0.83 2.58,0.85 1.58,0.04 0.9,-0.45 2.33,0.57 0.22,-0.77 0.08,-0.45 0.08,-1.08 0.51,-0.43 0.41,-0.27 0.89,-0.56 1.29,-0.76 0.78,-1.18 1.16,-2.59 0.19,-0.7 0.04,-1.1 0.23,-1.73l2.63 -8.04c0.8,-2.41 2.17,-2.71 3.68,-3.82 0.64,-0.47 1.37,-0.53 2.38,-0.7 1.02,-0.16 1.53,-0.43 2.56,-0.62 1.2,-0.23 1.28,-0.44 2.27,-0.93 1.61,-0.8 2.03,-0.95 3.6,-1.27 1,-0.2 3.63,-0.23 3.91,1.04 0.23,1.01 -1.45,3.26 -1.89,4.12 -1.28,2.56 -3.92,5.29 -3.8,8.21 0.01,0.21 0.07,0.68 0.09,0.91 0.08,0.93 -0.54,3.45 -0.52,3.54 0.35,0.62 0.66,0.38 0.7,1.25 -0.88,0.63 -1.44,0.44 -2.33,0.72 -0.81,0.25 -1.59,0.59 -2.47,0.77 -1.76,0.38 -3.09,1.06 -4.89,1.43 -2.13,0.44 -9.15,2.65 -12.19,3.49 -1.71,0.48 -3.29,1.13 -5.08,1.02 -0.96,-0.06 -1.83,0.29 -2.77,0.22 -0.8,-0.07 -0.44,0.06 -1.42,-0.1l-2.78 -0.07c-0.51,0 -0.98,-0.09 -1.53,-0.07 -0.95,0.04 -1.62,-0.86 -2.44,-1.4 -0.85,-0.56 -0.12,-0.34 -1.04,-0.4 -0.59,-0.03 -1.16,-0.31 -1.75,-0.44 -0.77,1.82 1.77,1.23 -1.29,4.51 -0.61,0.66 -1.09,2.24 -1.36,3.31 -0.22,0.9 0.19,1.87 0.68,2.55 0.55,0.76 1.39,1.39 2.48,1.76zm-50.05 4.6l0.47 0.66 -0.48 1.52c0.76,0.7 0.48,1.17 1.37,1.76 3.97,2.63 4.18,0.76 6.38,1.3 0.71,0.18 0.81,0.93 1.24,0.38 0.5,-0.65 0.99,-1.29 1.69,-1.82 0.68,-0.5 2.52,-1.24 3.2,-0.69 0.38,0.67 0.23,1.13 0.47,1.67 0.18,0.42 0.7,1.07 0.99,1.53l-0.34 1.2c1.33,1.49 0.67,1.55 0.8,2.84l1.64 5.73c0.39,1.83 0.99,0.74 0.55,3.12 -0.18,1 0.64,1.64 0.72,2.94 0.06,1.13 0.72,1.9 1.26,2.78 1.07,1.74 0.59,0.92 1.85,2.35 0.47,0.53 1.15,1.96 1.08,2.81 1.07,0.31 1.13,0.02 1.8,-0.36 1.91,-1.09 1.74,-1.44 2.15,-1.71 0.43,-0.28 0.63,0.09 0.98,-0.22 0.63,-0.55 -0.17,-0.67 1.29,-1.45 0.36,-0.99 0.89,-3.08 1.39,-3.84 1.04,-1.59 2.56,-6.03 2.63,-8.04 0.05,-1.39 -0.2,-1.18 0.77,-2.29 0.68,-0.79 0.51,-0.61 0.5,-1.5l1 -5.56c0.43,-1.31 0.88,-2.62 1.3,-3.94 0.58,-1.85 0.33,-1.78 0.92,-3.88 0.23,-0.86 -0.07,-0.81 0.2,-1.74 0.2,-0.69 0.43,-1.2 0.52,-1.9 0.12,-1.06 1.07,-4.89 1.76,-5.79l0.91 -1.45c0.73,-0.84 1.69,-1.46 2.11,-2.57 0.49,-1.28 1.32,-1.17 2.29,-1.96 0.52,-0.43 0.55,-0.61 1.18,-0.93 1.97,-1.01 2.43,-0.91 4.19,-1.74 0.83,-0.4 1.85,-1.04 2.28,-2.32 -1.1,0.05 -1.33,0.06 -2.35,0.3 -0.79,0.19 -1.53,0.15 -2.32,0.26 -1.26,0.17 -2.79,0.61 -4.1,0.61 -0.73,-0.01 -0.3,-0.06 -0.39,-0.2 -0.13,-0.28 -0.29,0.29 -0.07,-0.5l0.99 -2.12c0.49,-1.1 0.53,-1.83 1.2,-2.74 0.7,-0.96 0.55,-1.58 1.67,-1.85 0.66,-0.15 1.88,-0.14 2.6,-0.26 0.96,-2.16 1.93,-1.03 2.75,-2.4 1.98,-3.35 1.05,-2.54 1.45,-4.22 0.18,-0.77 0.43,-1.51 0.05,-2.09 -0.2,-0.31 -0.21,-0.13 -0.51,-0.7 -0.4,-0.78 -0.46,-1.92 -0.86,-2.71 -0.14,-0.3 -0.22,-0.5 -0.36,-0.77 -0.88,-1.72 -1.54,-0.53 -0.01,-5.19 0.51,-1.55 0.82,-2.96 1.22,-4.5 0.52,-1.95 1.17,-2.2 1.45,-4.49 0.14,-1.17 1.16,-2.69 1.76,-4.46 0.33,-0.94 0.69,-1.29 1.02,-2.03 0.47,-1.04 0.08,-1.2 0.38,-2.22 0.69,-2.35 2.47,-3.85 1.58,-6.42 -0.04,-0.11 -0.85,-1.58 -0.87,-1.6 -1.45,-1.42 -2.59,-0.96 -4.12,-1.49 -1.82,-0.62 -2.51,0.23 -3.73,0.74 -0.73,0.31 -0.77,0.68 -1.37,1.36 -0.71,0.8 -0.77,0.63 -1.47,1.16 -0.61,0.46 -1.55,1.98 -2.63,2.92 -0.71,0.61 -1.93,2.76 -2.26,3.69 0.09,0.32 0.34,0.92 0.38,1.19l0.17 1.42c0.31,1.3 -0.54,1.62 0.64,2.69 0.81,-0.09 0.77,-0.4 1.5,-0.7 1.02,-2.96 1.41,-1.3 0.71,0.7 -0.22,0.63 -0.61,1.17 -0.9,2.06 -0.73,2.24 -1.04,4.46 -1.82,6.68 -0.46,1.3 -0.84,3.16 -1.87,4.18l-3.28 1.34c-2.44,0.48 -4.88,0.55 -7.18,1.5 -0.71,0.3 -1.12,0.05 -1.85,0.12 -1.17,0.12 -1.04,0 -2.3,-0.39 -0.45,0.24 -1.03,0.7 -1.41,0.89 -0.48,0.25 -1,0.62 -1.58,0.67 -0.55,-0.55 -0.34,-0.81 -1.28,-1.13 -0.85,0.66 -0.5,0.83 -1.14,1.75l-1.28 -0.39c-0.47,1.08 -0.97,1.29 -1.9,1.36 -0.18,0.48 -0.22,0.98 -0.36,1.28 -0.25,0.52 -0.55,0.56 -0.79,1.08 -0.46,0.98 -0.66,2.23 -1.13,3.08l1.3 1.48c0.38,0.37 0.63,1.17 0.66,1.85 1.87,0.76 3.41,3.71 4.72,5.28 0.47,0.56 1.28,1 1.92,1.63 0.86,0.84 1.2,0.79 2.37,1.4 0.99,0.52 1.45,0.36 2.52,0.32 0.93,-0.03 3.93,-1.87 4.52,-1.01 0.31,0.45 -0.26,1.2 -0.35,1.7 -0.78,4.24 -0.17,3.12 -3.41,4.33l-6.72 2.42c-0.47,0.21 -0.67,0.5 -1.16,0.68l-1.36 0.56c-1,0.35 -1.73,0.27 -2.69,0.88 -1.34,0.84 -1.49,-0.03 -2.69,0.93 -1.6,1.28 -3.17,1.76 -4.92,2.69 -0.65,0.35 -0.67,0.15 -1.31,0.4 -0.73,0.28 -0.58,0.47 -1.32,0.62 -1.44,0.29 -2.48,1.08 -4.04,1.22 -0.84,0.08 -0.99,-0.22 -1.51,-0.25 -1.42,-0.08 -1.3,0.86 -2.19,1.87 -0.63,0.72 -0.46,0.54 -0.56,1.54 -0.09,0.89 -0.48,0.91 -0.5,1.61 -0.04,1.72 0.25,1.41 -0.37,3.5z"/>
  <path class="fil2" d="M1559.03 1911.85c-1.37,-0.32 0.02,-0.46 -3.89,-0.86 -0.48,-0.05 -1.55,-0.22 -1.97,-0.4 -0.78,-0.33 -1.72,-0.75 -3.06,-0.53 -0.41,0.07 -0.78,0.24 -1.19,0.22 -0.68,-0.02 -1.28,-0.32 -1.76,0.65 -0.14,0.3 -0.2,0.67 -0.33,0.95 -1.72,3.6 -0.34,2.14 -0.13,3.61 0.11,0.78 -0.21,0.38 -0.3,1.21 0.4,0.18 1.16,0.61 1.47,0.86 0.62,0.48 0.58,0.52 0.8,1.41l0.61 0.35 0.33 2.09c2.65,0.19 2.74,2.28 3.65,3.29 0.65,0.71 1.04,1.52 1.53,2.27 1.44,2.17 0.73,0.52 1.55,1.98 0.63,1.11 0.76,2.13 2.45,3.13 1.84,1.09 3.09,2.94 5.66,2.28l0.06 -0.25c0.19,-0.62 -0.14,-0.43 1.7,-0.87 -0.2,-0.67 -0.25,-0.46 -0.66,-0.93l0.23 -0.74c-0.48,-0.74 0.27,0.43 -0.27,-0.3 -0.17,-0.23 -0.13,0.33 -0.18,-0.29 -0.05,-0.8 1.11,-0.11 1.58,-0.08l0.45 -0.43 -0.22 -0.99c0.23,-1.19 2,-0.85 3.2,-1.12 3,-0.66 4.58,-0.89 7.68,-2.38l4.54 -1.93c2.11,-0.89 2.42,-1.97 2.77,-2.39l0.42 -0.41 -0.74 -0.1c-0.33,-1.33 0.63,-0.42 2.16,-3 -1.77,-0.95 -0.29,-0.68 -2.04,-2.38l-2.14 -2.49c0.16,-0.85 0.36,-1.65 0.56,-2.55l1.72 -4.57c0.59,-1.25 0.06,-1.26 -0.23,-2.65 0.75,-0.79 0.61,-0.41 -0.16,-3.46 -0.59,-2.35 0.14,-1.09 -0.28,-2.6 -0.6,-0.32 -1.06,-0.51 -1.77,-0.94 -0.9,-0.54 -1.01,-0.3 -2.04,-0.53 -0.41,-0.09 -0.45,-0.26 -0.94,-0.38 -1.61,-0.4 -1.57,0.14 -2.11,0.41 -0.38,0.19 -0.83,0.24 -1.24,0.33 -0.88,-0.67 -0.06,-0.53 -2.11,-0.53 -0.24,0.47 -0.4,0.94 -0.72,1.55 -0.4,0.74 -0.41,0.72 -1.38,1.06 -0.76,0.27 -0.31,0.2 -0.85,0.49 -2.28,1.19 -3.25,0.24 -4.81,0.47 -1.14,0.16 -1.75,0.7 -3.19,1.6 -0.81,0.51 -0.9,0.44 -1.96,0.71 -0.17,0.22 -0.37,0.58 -0.51,0.7 -0.19,0.19 -0.58,0.37 -0.77,0.55 -0.9,0.83 -0.26,0.49 -1.69,0.88 -0.22,0.83 -0.59,1.06 -0.97,1.72 -0.96,1.68 -1.31,0.91 -1.02,2.2 0.38,0.18 0.63,0.42 1.12,0.46 2.77,0.27 0.24,0.88 3.88,0.65l0.7 0.79 2.91 0.07c3.52,-0.42 3.01,0.08 5.4,-1.87 1.69,-1.36 0.64,-1.16 1.42,-1.89 1.08,0.02 0.76,0.72 0.76,1.6 -0.01,1.12 0.04,1.5 -0.23,2.01 -0.29,0.55 -1.49,4.68 -1.96,5.44l-1.02 1.54c-0.2,0.37 -0.6,1.25 -0.79,1.7 -0.37,0.89 -0.7,0.72 -1.02,1.51 -0.46,0.15 -0.81,0.16 -1.12,0.39 -0.46,0.35 -0.13,0.65 -1.37,0.93 -1.4,0.31 -1.38,-0.37 -1.6,-1.24 -0.27,-1.13 -0.33,-0.73 -0.64,-1.31 -1.1,-2.08 -0.34,-2.29 -0.31,-2.72 -0.34,-1.38 -1.29,-3.43 -2.1,-4.27l-1.52 0.32zm-17.94 -38.05c-0.78,-0.64 -0.43,-1.05 -1.79,-1.08 -1.49,-0.02 -1.38,0 -2.3,0.6 -0.55,0.36 -0.69,0.09 -0.61,0.93 0.11,1.28 -0.32,1.23 0.91,3.2l1.34 -0.01c0.11,0.99 -0.36,0.59 -1.13,1.91 -0.32,0.57 -0.49,1.67 -0.35,2.35 0.32,0.11 1.16,0.24 1.54,0.34 1.1,0.27 1.68,-0.68 2.23,0.21 0.29,0.47 0,0.45 0.78,0.85l0.23 1.1c1.23,0.25 0.68,0.35 1.36,1.1l1.28 1c1.15,1.02 1.34,0.05 3.19,1.02 1.51,-0.69 2.5,-0.21 3.83,-1.01 0.52,-0.32 0.26,-0.27 0.65,-0.48 0.37,-0.19 0.56,-0.15 0.91,-0.34 0.32,-0.17 0.79,-0.71 1.22,-1l-0.01 -0.82c1.8,-1 0.82,-0.96 1.73,-2.2 -0.67,-0.92 -0.19,-0.64 -0.21,-1.39 -0.01,-0.4 -0.31,-1.38 -0.39,-1.83l0.51 -0.65c-0.28,-1.62 0.1,-1.85 -0.18,-2.28 -1.37,-1.11 -1.69,0.49 -2,-2.19 -0.17,-1.51 0.08,-0.98 -1.74,-2.6 -2.19,0.49 -0.88,0.34 -1.71,0.73 -0.36,0.16 -0.55,0.1 -0.94,0.32 -0.36,0.2 -0.06,0.12 -0.53,0.39 -0.98,-0.09 -1,-0.48 -1.97,0.43 -0.55,0.51 -0.99,0.83 -1.87,0.75 -3.11,-0.29 -1.38,0.24 -3.98,0.65zm-16.36 24.7c0.03,0.02 0.08,0.05 0.1,0.06l0.73 0.45c-0.1,0.61 -0.06,0.4 -0.54,0.76 0.3,0.98 0.27,0.4 0.67,1.17 -0.07,0.4 -0.47,1.84 -0.43,2.3l0.98 2.22c0.23,0.53 0.39,2.14 0.45,2.8 0.09,1.05 0.45,1.6 0.72,2.56 0.7,2.43 -0.05,1.32 0.14,2.65 0.11,0.82 0.35,1.86 0.35,2.67 0.01,1.46 0.42,1.5 0.77,2.73 0.1,0.33 0.34,1.21 0.37,1.51 0.06,0.73 -0.18,0.25 -0.09,1.09 0.56,0.85 0.41,0.14 0.62,1.51 0.05,0.35 0.43,1.22 0.56,1.76 0.17,0.68 0.32,1.35 0.52,2.02 0.37,1.24 0.14,0.68 0.05,1.61 1.35,0.79 0.66,0.85 1.03,2.75 0.32,1.67 -0.52,-0.83 0.57,3.23 0.35,1.3 0.58,1.01 -0.2,1.83 1.02,2.33 0.32,0.62 0.42,2.04 0.04,0.59 1.42,2.72 1.23,4.54l-0.08 2.1c1,1.58 1.5,1.69 1.36,3.8 0.98,0.65 0.39,1.14 -0.15,1.95 0.24,0.51 0.02,0.17 0.41,0.58 1.2,1.29 0.68,2 0.81,2.47 0.18,0.62 1.13,2.71 0.96,3.5 -0.33,1.56 0.33,0.99 -0.15,2.21 1.66,2.12 3.68,3.47 4.24,5 1.2,-0.16 1.27,0.68 2.29,0.81 0.65,0.09 2.06,0.16 2.73,-0.11 1.59,-0.64 1.31,-0.41 1.71,-1.73 0.52,-1.73 0.03,-0.77 1.35,-1.92l-1.27 -3.61c-0.04,-0.01 -0.1,-0.01 -0.14,-0.02 -0.04,-0.01 -0.09,-0.01 -0.13,-0.02 -0.47,-0.13 -1.14,-0.54 -1.5,-0.98l0.39 -1.49c-0.47,-0.79 -0.83,-0.65 -0.54,-1.77 0.22,-0.86 -0.08,-1.09 0.54,-1.64 -0.99,-0.63 -0.31,-0.28 -0.84,-1.54 -0.24,-0.57 -0.19,-0.2 -0.57,-0.76 0.13,-1.15 0.55,-0.55 0.25,-2.13l0.95 -0.45c-0.24,-0.88 -0.34,-0.58 -0.97,-1.02 0.08,-0.92 0.26,-0.31 -0.05,-1.59 -0.48,-1.95 -0.31,-0.61 -0.71,-1.46 -0.02,-0.05 -0.02,-2.98 -0.75,-4.18 -0.21,-0.35 -0.23,-0.07 -0.38,-0.51 -0.26,-0.74 0.33,-0.21 -0.25,-1.27 -0.36,-0.65 0.08,-0.79 -0.08,-1.48 -0.17,-0.7 -0.41,-0.56 -0.89,-1.06l0.34 -0.76c-1.12,-0.84 0.03,-1.12 -0.47,-2.18 -0.33,-0.69 -0.5,0.02 -0.58,-0.92l0.14 -2.2c-0.04,-0.47 -0.21,-0.8 -0.22,-1.3 -0.02,-1.16 0.4,-1.18 0.55,-1.96 -0.42,-0.46 0.09,-0.13 -0.65,-0.38 -0.2,-2.61 1.32,-1.28 0.94,-2.88l-1.72 0.36c-0.43,-1.31 -0.69,-1.39 0.01,-2.27 -0.42,-0.77 -0.58,-0.46 -0.85,-1.06l-0.68 -1.26c-0.33,-0.69 -0.37,-4.65 -1.23,-6.02 -0.32,-0.5 -0.51,-0.28 -0.59,-1.32 -0.07,-0.9 0.05,-0.39 -0.3,-1.22 -0.24,-0.57 -0.62,-2.28 -0.79,-2.99 -0.41,-1.67 -0.54,-1.35 0.06,-2.68 0.42,-0.93 0.14,-1.3 0.73,-2.3l1.12 -2.04c-1.28,-1.76 -0.53,-0.85 -0.91,-2.04l-1.49 -0.41 -0.28 -1c-1.74,-0.84 -3.14,-3.41 -3.88,-3.67 -0.36,-0.13 -0.56,-0.03 -0.96,-0.14 -0.15,-0.04 -1.68,-0.73 -2.75,-0.22 -1.06,0.52 -1.64,1.02 -1.84,1.94 -0.35,1.6 -0.48,1.15 -1.28,2.08l0.53 2.08 -0.51 0.82zm54.04 -34.68c-0.88,0.25 -0.67,0.18 -1.25,0.55 -0.51,0.33 -0.65,0.25 -1.25,0.42 -1.09,0.3 -1.16,0.85 -1.92,1.16 -6.17,2.54 -3.92,1.03 -6.89,0.61 -0.83,-0.12 -1.27,-0.26 -2.1,-0.41 -1.59,-0.3 -2.82,0.38 -3.87,0.25l-1.23 0.08 -0.31 0.73c-1.72,0.49 -1.04,0.46 -2.28,1.16 -1.42,0.8 -1.96,0.76 -2.42,1.59 0.65,1.49 1.12,2.13 2.63,2.39 1.35,0.24 0.68,0.44 1.43,1.01 0.28,0.22 1.13,0.29 1.65,0.43l0.29 0.93c0.82,0.1 0.33,0.14 1.28,0.09 0.76,-0.04 0.41,0.04 1,0.28 0.4,0.17 0.65,0.08 1.14,0.3 0.68,0.32 0.21,0.34 0.9,0.47 0.72,-0.14 0.6,-0.11 1.15,0.06l3.18 0.34c0.47,-0.07 2.16,-0.67 2.44,-0.89l1.45 -1.28c0.29,-0.87 -0.13,-0.45 0.52,-1.55 0.3,-1.63 -2.37,-1.8 0.68,-3.92 3.45,-2.39 3.37,-0.92 3.69,0.67l0.82 0.25 0.35 1.33c0.5,0.2 0.75,0.28 1.22,0.37 0.65,1.04 0.48,1.51 0.8,2.25 0.36,0.85 1.49,2.01 1.93,3.02 0.18,0.44 0.27,0.71 0.49,1.1 0.19,0.36 0.44,0.76 0.65,1.1 0.32,0.52 0.24,0.64 0.45,1.15 0.27,0.66 0.44,0.46 1.04,2.3 0.17,0.53 -0.06,0.59 0.23,1.29 0.25,0.62 0.26,0.11 0.33,1.07 0.13,1.74 0.43,1.71 0.84,2.46 0.27,0.49 0.06,0.82 0.1,1.22 0.06,0.53 0.26,0.49 0.45,0.91 0.35,0.77 0.48,1.69 0.89,2.6 0.44,0.96 0.54,1.63 0.82,2.67 0.29,1.09 1.12,2.47 1.33,3.61 0.2,1.12 1.14,2.68 1.35,3.56 0.12,0.5 -0.04,0.72 0.27,1.27l3.3 7.84c0.33,0.75 0.5,1.72 0.89,2.61 0.41,0.95 0.56,1.62 0.82,2.66 0.44,1.81 1.62,3.12 1.87,4.84 0.24,1.66 0.4,1.15 0.84,2.33 0.39,1.08 0.24,1.48 0.85,2.64 1.34,2.57 1.04,3.19 1.78,4.9 0.6,1.4 1.76,5.74 2.54,7.93 1.08,3.03 2.91,6.95 2.83,10.13 -1.2,0.35 -2.6,0.13 -3.48,-0.48 -0.83,-0.57 -0.83,-0.01 -1.59,-0.54 -1.01,-0.69 0.07,-0.44 -1.47,-0.72l-4.01 -1.39c-1.05,-0.62 -1.38,0.06 -2.01,-1.25 -1.48,0.07 -3.34,-0.45 -4.68,0.01 0.23,1.34 0.21,-0.05 0.87,1 -0.65,0.65 -0.37,-0.11 -0.51,0.65 0.51,0.58 0.23,0 1.05,0.46 0.72,0.41 2.4,1.62 2.51,2.43 0.12,1 -0.95,0.58 0.87,1.82 0.67,0.45 0.62,0.72 0.83,1.49 1.32,0.19 2.42,0.65 3.38,1.44 0.9,0.77 0.68,-0.06 1.92,1.39 0.66,0.77 0.32,0.15 1.04,0.48l2.08 1.15c1.25,0.56 2.47,1.83 4.15,2.32 1.39,0.41 0.98,0.82 1.89,1.46 0.52,0.37 0.6,0.07 1.19,0.46 0.56,0.37 0.26,0.41 1.01,0.48 0.14,-0.25 0.2,-0.42 0.35,-0.78l1.17 -0.31c0.45,-0.92 0.36,-2.45 1.17,-3.04 0.92,-0.68 0.54,-0.41 0.88,-1.35 0.29,-0.8 0.56,-0.63 1.32,-1.08 0.29,-0.41 0.55,-0.81 0.83,-1.24 0.74,-1.14 1.19,-1.01 1.48,-2.57 0.18,-0.92 0,-0.56 0.3,-1.4 0.71,-2.03 -0.01,-4.35 0.2,-6.48 0.22,-2.16 0.15,-1.65 -0.33,-3.37 -0.18,-0.6 -0.05,-1.24 -0.3,-1.87 -0.28,-0.7 -0.44,-0.3 -0.73,-1.42 -0.16,-0.61 -0.3,-1.45 -0.51,-2.02 -0.54,-1.49 -1.57,-3.36 -1.27,-5.02 -1.05,-0.9 -0.86,-2.85 -0.88,-4.14l-0.38 -2.16c-0.08,-0.38 -0.32,-0.52 -0.38,-0.79 -0.08,-0.4 0.3,-1.71 -0.74,-3.13 -0.62,-0.85 -1.42,-5.3 -1.77,-6.56 -0.34,-1.24 -0.64,-3.49 -1.18,-4.47 -0.56,-1.05 -0.42,-0.8 -0.79,-2 -0.27,-0.87 -0.53,-0.62 -0.86,-1.91 -0.49,-1.96 -1.1,-3.1 -1.43,-4.27 -0.47,-1.64 -1,-2.79 -1.43,-4.3 -0.89,-3.05 -3.97,-4.37 -5.38,-11.33 -0.24,-1.22 -0.8,-1.17 -0.86,-1.9 -0.07,-0.77 0.57,-0.47 -0.28,-1.96 -0.36,-0.65 -0.48,-1.51 -0.87,-2.13 -0.36,-0.56 -0.68,-1.07 -0.97,-1.7 -0.54,-1.2 -0.66,-0.52 -1.12,-1.59 -0.77,-1.8 -0.35,-1.99 -1.51,-4.09 -0.37,-0.66 -0.81,-0.5 -1.09,-1.55 -0.55,-2.02 -1.47,-1.08 -1.96,-3.46l0.51 -0.81c-0.24,-1.2 -0.04,-1.38 -0.16,-2.27 -0.27,-0.29 -0.5,-0.42 -0.75,-0.72 -0.21,-0.25 -0.41,-0.66 -0.61,-0.9 -2.81,-3.35 -4.27,-0.63 -5.85,-0.6 -1.22,0.03 -4.18,-2.09 -5.63,0.99l-2.97 0.74c-0.23,0.5 -0.33,0.61 -0.25,1.42z"/>
  <path class="fil2" d="M1462.7 1943.57c-0.05,0.38 0.05,0.95 0.07,1.36 0.05,0.92 -0.16,1.4 -0.1,2.6 0.07,1.69 -0.28,0.85 0.46,2.22 -0.06,0.48 -0.23,0.73 -0.23,1.23 0.01,0.66 0.23,0.82 0.24,1.33 0.01,1.35 -0.98,3.41 -1.38,4.44 -0.14,0.38 -0.79,4.98 -1.29,5.97 -0.1,0.2 -1.91,2.79 -2.81,4.5 -0.44,0.85 -0.82,1 -1.23,1.84l-3.48 5.37c-1.28,1.21 -1.73,2.33 -1.74,4.12 -0.02,4.42 0.46,2.86 0.76,5.13 1.07,0.28 2.55,0.45 3.48,-0.21 1.77,-1.25 1.35,-1.33 2.18,-0.22l0.99 -0.32c1.12,-0.37 2.8,-4.13 4.23,-5.81 0.54,-0.64 0.92,-0.9 1.33,-1.59 1.27,-2.14 0.35,-1.16 2.43,-3.39 0.68,-0.74 1.85,-2.77 2.07,-3.52 0.25,-0.85 -0.23,-0.43 0.4,-1.11 0.67,-0.71 0.88,-1.04 0.79,-1.89 -0.11,-1.11 0.43,-1.12 0.57,-1.93 0.14,-0.79 -0.02,-0.44 0.25,-1.07 1.21,-2.75 0.74,-2.59 1.57,-5.57 0.16,-0.59 0.01,-0.68 0.03,-1.27 0.02,-0.79 0.19,-0.37 0.25,-1.06 0.02,-0.37 -0.06,-0.94 -0.06,-1.38 0.2,-0.63 0.79,0.09 0.79,-2.83l0.37 -3.19c0.27,-1.46 -0.47,-2.77 -0.55,-3.37 -0.24,-1.89 -1.7,-4.14 -1.72,-4.2 -0.17,-0.5 -0.36,-0.8 -0.62,-1.34 -0.28,-0.61 -0.24,-0.72 -0.66,-1.3 -0.38,-0.53 -0.27,-0.77 -0.69,-1.25 -3.07,-3.52 -2.1,-3.34 -3.03,-4.74 -1.14,0.32 -0.2,0.36 -1.51,1.46l-1.17 1.54c-0.01,1.17 -0.45,5.06 -0.95,5.78 0.19,0.41 0.49,0.53 0.37,1.13 -0.12,0.62 -0.24,0.1 -0.2,1.29 0.03,0.95 -0.14,0.61 -0.21,1.25zm-38.36 -40.49c3.21,-0.25 1.97,0.13 4.09,-1.01 1.66,0.5 0.67,0.07 1.93,-0.43 1.48,-0.59 1.77,-0.43 3,-0.65 0.86,-0.16 0.29,-0.33 1.34,-0.46 3.09,-0.37 3.05,-0.6 5.39,-1.66l2.38 -1.18c1.79,-1.14 3.41,-1.22 2.78,-4.04 -0.21,-0.96 -0.74,-1.4 -0.9,-2.51 -0.63,-0.08 -0.73,-0.2 -1.25,-0.61 -0.71,-0.56 -0.52,-0.4 -0.62,-1.33 -1.23,0.04 -2.07,-0.62 -2.23,-1.9 -1.1,0.05 -1.56,-0.05 -2.19,-0.84 -2.04,-0.08 -0.74,-0.25 -1.87,-0.25 -2.45,0 -0.79,-0.1 -1.93,-0.18 -1.55,-0.1 -2.19,-0.54 -3.88,-0.35l-0.87 -0.66c-0.34,0.13 -0.79,0.38 -1.09,0.66 -1.5,1.44 -1.66,1.01 -3.06,1.41 -0.67,0.19 -2.27,1.19 -2.9,1.53 -2.3,1.25 -3.91,1.42 -5.21,1.98l-5.04 2.1c-0.33,0.24 -1.2,1.32 -1.5,1.73 0.01,1.13 0.02,1.17 -0.14,2.16 -0.21,1.24 -0.35,1.09 -0.25,1.87 0.97,0.66 0.8,0.84 2.33,0.98 1.24,0.11 1.5,0.23 2.92,0.19 0.13,1.07 -0.21,1.26 -0.68,2.1l-0.67 2.11c0.92,0.02 2.11,-1.71 2.78,-2.22 0.62,-0.47 1.01,-0.72 1.88,-0.24 2.61,1.44 0.78,1.01 3.33,1.57 0.98,0.22 0.8,0.24 2.13,0.13zm-26.86 72.85c0.62,-0.48 0.22,-0.66 0.94,-0.8 0.77,1.06 -0.41,0.58 1.01,1.92 0.95,-0.25 0.83,-0.44 1.17,-1.09 0.96,0.04 0.04,0.05 0.89,0.25 0.47,-0.64 0.13,-0.66 0.57,-1.27 0.32,-0.44 0.42,-0.56 0.73,-1.15 0.21,-0.41 0.37,-1.01 0.44,-1.38l0.78 -3.03c0.16,-0.79 -0.02,-0.77 0.25,-1.56 1.42,-4.19 2.48,-6.55 5.86,-9.45 0.52,-0.44 0.39,-0.69 0.73,-1.14 0.25,-0.32 0.93,-0.68 1.2,-0.87 -0.11,-1.95 0.3,-1.57 0.48,-3l0.62 -2.83c0.23,-1.04 0.18,-2.03 0.33,-3.1l1.87 -3.38c0.74,-1.14 0.52,-1.17 0.36,-3.07 -0.08,-1.03 -1.01,-2.02 -0.54,-4.94 0.12,-0.8 -0.1,-4.16 -0.26,-5.22 -0.1,-0.6 -0.35,-0.91 -0.45,-1.51 -0.09,-0.55 -0.03,-1.15 -0.2,-1.67 -0.25,-0.77 -0.26,-0.53 -0.41,-1.58 -0.1,-0.66 -0.35,-0.83 -0.39,-1.36 -0.36,-3.89 -0.5,-1.08 -0.78,-4.78l-0.41 -5.34 0.74 -7.83c-0.67,0.42 -0.26,0.31 -1.32,0.45l-1.78 5.53c-1.5,0.61 -0.86,0.75 -1.28,2.13 -0.12,0.39 -0.29,0.92 -0.35,1.3l-0.3 1.35c-0.22,0.71 -0.19,2.02 -0.4,2.88 -0.11,0.45 -0.26,1.03 -0.29,1.35 -0.22,2.26 -0.62,0.48 0.13,2.06 -0.38,0.87 -1.26,5.31 -1.46,6.6 -0.13,0.83 -0.42,2.52 -0.67,3.29 -0.77,2.31 -0.27,1.04 -0.36,2.6 -0.04,0.62 -0.14,0.34 -0.23,0.9 -0.09,0.53 -0.2,1.21 -0.22,1.73l-0.55 9.36c-0.18,1.29 -0.72,2.12 -0.88,3.24 -0.21,1.49 -0.75,3.19 -1.45,4.56 -0.21,0.43 -0.42,1.15 -0.53,1.64 -0.13,0.62 -0.3,0.83 -0.58,1.41 -1.23,2.58 -3.29,7.72 -4.15,10.28 -0.4,1.19 -0.53,2.13 -0.3,3.6 0.21,1.33 0.68,1.98 1.44,2.92zm25.16 -54.7c1.26,-0.84 3.9,-0.57 5.53,-0.48 1.01,0.05 1.72,0.25 2.76,0.17 0.82,-0.06 2.1,-0.23 2.85,-0.14 -0.26,1.91 -1.08,3.81 -1.84,5.66 -0.34,0.83 -0.83,1.93 -1.25,2.62 -0.67,1.09 -1.54,1.11 -2.53,0.73 -0.55,0.4 -0.6,0.34 -1.48,0.51 -0.43,0.78 -1.39,1.81 -1.91,2.38 -0.84,0.91 -0.8,1.6 -1.3,2.74 -0.37,0.86 -0.3,1.63 -0.52,2.45 -0.08,0.31 -0.12,0.38 -0.21,0.78 -0.2,0.88 -0.09,0.76 -0.12,1.8 -0.02,0.7 -0.25,0.94 -0.33,1.67 -0.13,1.28 0.16,2.72 0.16,4.02 0,1.27 -0.27,2.57 -0.09,3.58l0.32 5.91 -0.46 1.47c0.67,0.75 0.14,5.92 -0.18,7.13 -0.86,3.18 -1.45,2.92 -1.83,4.23 -0.1,0.33 -0.45,1.22 -0.49,1.5 -0.02,0.16 0.03,1.02 0.06,1.19 0.18,0.92 0.07,0.1 0.33,0.74 0.36,0.91 0.03,0.65 0.61,1.55l0.86 2.39c0.36,1.2 2.07,3.4 3.14,4.2 0.43,0.32 0.69,0.45 1.16,0.84 3.03,-0.11 2.62,0.29 4.11,-1.49 1.01,-1.22 1.42,-1.94 2.29,-3.34l2.41 -3.24c0.97,-2.27 2.23,-3.09 3.89,-7.11 0.56,-1.35 1.12,-2.3 1.78,-3.62l3.43 -7.51 -1.25 0.53c-0.23,0.24 -0.23,0.22 -0.62,0.35 -0.31,-0.86 -0.24,-0.66 -0.03,-1.38 0.54,-1.92 -1,-2.02 -0.79,-3.24 0.11,-0.61 0.33,-0.04 0.26,-0.93 -0.06,-0.77 -0.13,-0.32 -0.33,-0.76 -0.61,-1.35 0.39,-2.62 0.3,-3.73 -1.3,-0.18 -1.11,1.45 -1.88,2.39l-3.56 4.19c-0.9,1.06 -1.84,2.4 -2.88,3.32 -0.92,0.81 -1.77,3.35 -2.62,3.09 -0.05,-0.12 -0.09,-0.02 -0.07,-0.27 0.01,-0.04 0.06,-0.17 0.07,-0.22l-0.17 -1.77c-0.35,-0.93 -0.68,-4.62 -0.55,-5.63 0.13,-1.03 0.35,-2.74 -0.15,-3.89 -0.44,-1.04 -0.06,-1.14 -0.05,-2.37 0,-0.99 0.51,-2.34 1,-3.16 0.29,-0.5 0.34,-0.28 0.56,-0.8 0.14,-0.35 0.09,-0.66 0.19,-1.13 0.22,-0.15 0.66,-0.27 0.95,-0.47 1.31,-0.88 0.15,-0.49 1.85,-0.34 0.81,0.07 0.44,0.14 1.06,0.24 0.55,-0.6 0.82,-0.81 1.27,-1.46l1.16 -1.59c0.49,-0.86 1.63,-2.71 2.72,-2.85l0.31 0.95c0.89,-0.34 1.26,-1.29 1.66,-2.11 0.77,-1.59 1.5,-3.23 2.04,-5 0.29,-0.94 0.44,-1.85 0.74,-2.75l0.89 -3.72c0.06,-0.33 -0.01,-0.49 0.04,-0.8 0.06,-0.45 0.11,-0.24 0.19,-0.61 0.08,-0.36 -0.01,-0.45 0.08,-0.76 0.09,-0.35 1.02,-1.21 1.43,-2.14 0.57,-1.29 0.46,-1.49 -0.48,-2.5l0.01 -1.04 -0.54 -0.22c-0.19,-0.08 -0.16,-0.06 -0.35,-0.16 -0.29,-0.15 -0.36,-0.23 -0.59,-0.43 -0.79,-0.7 -2.93,-2.04 -3.97,-2.3 -3.11,-0.78 -4.41,-0.24 -5.63,-0.55 -2.23,-0.57 -1.03,-0.4 -2.47,0.02l-3.22 0.65c-0.53,0.15 -0.19,0.22 -0.85,0.37 -1.26,0.27 -1.7,0.57 -2.89,0.9 -0.58,0.16 -1.37,0.41 -1.92,0.63 -0.63,0.27 -0.99,0.7 -1.42,1.03 -1.14,0.92 -0.8,0.43 -1.99,1.66 -0.35,0.37 -0.35,0.21 -0.66,0.57 -0.32,1.65 -0.69,1.29 -0.52,3.41 0.16,2.05 0.25,1.64 0.99,3.17 1.06,0.06 0.82,0.23 1.53,0.28zm29.65 -28.88c0.87,0.97 0.01,1.27 1.87,1.6 1.43,0.25 2.9,0.07 5.08,1.17 1.58,0.8 1.5,0.53 2,1.26l-0.75 1.94c-0.37,1.2 -1.41,2.72 -1.87,3.55 -0.86,1.58 -1.84,3.67 -2.23,5.48 -0.29,1.37 -0.67,2.76 -1.21,3.94l-2.15 10.21c-0.06,0.27 -0.01,0.31 -0.07,0.59l-0.45 2.01c-0.07,0.54 0.1,0.67 -0.05,1.25 -0.15,0.56 -0.09,0.46 -0.2,1.13 -0.36,2.37 -0.05,0.89 -0.13,2.29 -0.04,0.63 -0.2,1.56 -0.25,2.34 -0.07,0.88 0.08,1.67 -0.05,2.53 -0.23,1.45 0.06,13.2 0.28,14.88 0.19,1.52 0.33,3.74 0.3,5.21 -0.03,1.4 0.56,1.37 0.39,2.27 -0.41,2.2 0.09,2.26 0.46,4.75 0.14,0.98 0.12,0.28 0.4,1.02 0.69,1.85 1.21,1.03 1.81,2.21 0.38,0.74 0.26,1.24 1.11,1.48 0.3,-0.49 0.43,-0.7 0.66,-1.23l1.17 0.25c-0.07,-1.4 0.03,-1.47 0.76,-2.23 0.66,-0.7 0.49,-1.09 1.34,-1.74 -0.06,-1.85 0.08,-3.75 -0.06,-5.53 -0.08,-0.95 -0.26,-2.02 -0.28,-2.93 -0.03,-1.08 0.19,-1.78 0.18,-2.6 -0.01,-1.96 -0.98,-9.84 -0.6,-10.97 0.72,-2.18 -0.08,-2.58 0.03,-5.45 0.03,-0.79 0.23,-0.37 0.24,-1.22 0.02,-1.86 -0.54,-3.01 -0.64,-3.76 -0.36,-2.58 -0.04,-5.14 0.73,-7.56 0.36,-1.12 0.21,-1.17 0.63,-2.04 0.83,0.2 -0.21,0.24 0.88,0.24 0.18,-0.58 -0.04,-0.44 0.32,-0.98 0.12,-0.18 0.36,-0.46 0.52,-0.67 1.38,-1.78 0.86,-1.49 1.61,-3.13 0.3,-0.65 0.56,-0.94 0.82,-1.54 1.13,-2.53 0.92,-1.41 1.66,-3.09 0.52,-1.18 1.4,-1.87 1.98,-2.8 0.67,-1.08 0.95,-2.26 1.8,-2.96 0.98,-0.8 2.06,-1.05 3.22,-1.74 1.11,-0.68 1.62,-1.34 2.3,-2.53 0.16,-0.28 0.35,-0.46 0.46,-0.72 0.16,-0.39 0.08,-0.51 0.2,-0.97 0.16,-0.63 0.55,-1.14 0.79,-1.57 0.23,-1.07 -0.83,-2.06 0.05,-2.7 0.04,-0.03 0.42,-0.21 0.47,-0.23l2.67 0.15c0.63,0.13 0.09,0.28 1.2,0.21 0.28,-0.85 0,-0.94 0.8,-1.5 0.93,-0.65 0.8,-0.09 1.38,-1.07 1.27,-0.23 1.45,-0.44 2.29,-1.05 -0.08,-1.89 0.05,-1.59 0.64,-3.04 0.82,-2.02 -0.56,-3.03 -1.21,-3.84 -0.32,-0.4 -0.43,-0.54 -0.96,-0.77 -2.97,-1.27 -2.3,-1.16 -6.08,-0.99l-1.53 -0.26c-0.94,-0.14 -2.01,-0.74 -2.91,-0.32 -1.45,0.68 -2.49,1.5 -3.95,1.6 -2.12,0.14 -4.68,1.05 -4.93,1.08 -1.76,0.18 -0.82,0.56 -4.61,1.04 -0.82,0.1 -0.59,0.25 -1.51,0.48 -0.7,0.18 -0.59,0.34 -1.35,0.44 -2.03,0.27 -2.23,0.78 -3.05,0.93 -2.15,0.39 -0.94,0.59 -2.43,1.3l-2.55 1.2c-2.3,1.71 -1.99,1.34 -1.86,2.88 0.53,-0.03 2.04,0.17 2.43,0.34 0.28,0.13 0.63,0.43 1.02,0.5 0.55,0.09 0.37,-0.13 0.97,-0.02zm24.76 71.37c-1.52,0.12 -1.36,-0.24 -2.69,-0.14 -0.73,1.12 -0.87,1.2 -0.24,2.64 0.25,0.57 0.22,0.89 0.53,1.45 0.41,0.74 0.24,0.8 0.5,1.47 0.48,0.33 0.4,0.1 0.78,0.59l1.8 2.22c1.86,2.21 7.46,4.81 8.91,6.68 0.74,0.95 1.21,0.98 1.97,2.2 0.94,1.5 0.97,0.88 1.68,2.17 0.99,1.77 -0.02,0.2 1.07,1.58 0.88,1.12 2.43,3.71 3.78,4.02 1.9,0.42 1.23,0.86 2.35,0.3 0.61,-0.3 1.02,-0.09 1.95,-0.34 -0.11,-1.18 -0.79,-1.07 0.15,-2.2 0.71,-0.85 0.34,-1.08 0.55,-2.15l0.65 -0.35c-0.03,-1.77 -0.76,-1.05 -0.88,-2.53 -0.14,-1.67 -0.42,-1.67 -0.98,-2.99l-0.87 -2.92c-0.25,-3.2 0.09,-3.43 -1.34,-4.64 -0.5,-0.43 -1.18,-1.12 -1.7,-1.4 -2.04,-1.08 -0.19,-0.52 -2.07,-1.15 -0.55,-0.19 -1.65,-0.64 -1.96,-1.13 0.62,-0.35 1,-0.64 1.73,-0.11 0.14,-0.18 0.2,-0.21 0.33,-0.51l1.05 -3.76c0.32,-1.13 0.52,-4.1 0.5,-5.04l-0.66 -8.44c-0.11,-0.98 -0.45,-1.27 -0.53,-2.38 -0.09,-1.05 0.2,-2.39 0.37,-3.2 0.4,-1.86 -1.63,-8.48 -1.7,-9.34l-0.29 -3.61c-0.19,-2.41 -1.88,-4.49 -2.18,-10.22 -0.14,-2.83 -0.28,-2.39 -0.75,-5.14l-0.44 -5.75c2.22,-2.37 0.09,-4.82 -1.9,-6.37 -0.76,-0.59 -1.51,-0.74 -2.47,-0.67 -2.86,0.22 -2.95,0.58 -4.28,0.68 -1.24,0.1 -2.08,0.77 -3.57,0.6 -0.75,-0.08 0.1,-0.19 -0.9,-0.26 -1.04,0.61 -0.48,0.93 -1.11,1.8 -0.3,0.41 -1.06,0.61 -1.67,1.14 -1.53,1.33 -2.25,1.74 -2.1,3.4 0.73,0.36 0.68,0.51 1.28,0.88 0.85,-0.23 1.16,-0.84 2.09,-0.57 0.78,0.23 0.2,0.31 1.01,0.32 0.35,0.01 0.74,-0.06 1.18,-0.05 0.16,1.1 0.51,1.71 0.6,2.87l0.74 9.46c0.17,2.29 0.6,5.84 1.23,7.96l2.07 16.19c0.23,0.79 0.36,0.52 0.46,1.88l1.37 8.89 -0.94 0.6c0.08,1.33 0.37,0.27 0.76,1.33 -0.31,0.54 -0.18,0.33 -0.75,0.63l-0.22 0.14c0.41,0.95 0.35,1.22 -0.26,2.1l0.16 1.18c-2.53,0.23 -0.55,-0.29 -4.15,-0.01z"/>
  <path class="fil2" d="M1056.41 1841.16c-1.32,-0.69 -1.27,-0.15 -2.45,-0.91 -0.08,-1.4 0.36,0.38 -0.29,-2.07 -0.83,-3.17 -0.83,-2.56 0.23,-3.38l0.01 -0.78c0,-0.04 0,-0.1 0,-0.13l-0.02 -0.26c-0.61,-0.23 -1.78,0.03 -2.21,0.27 -1.11,0.62 -1.01,0.2 -2.16,0.48 -1.73,0.42 -1.8,0.86 -2.96,-0.86 -0.15,-0.23 -0.69,-0.86 -0.84,-1.01 -0.57,0.05 -0.26,0.01 -0.8,0.28 -0.63,0.31 -0.27,0.14 -0.95,0.24 -1,0.14 -2.51,1.64 -5.51,1.47 -1.95,3.66 -0.64,1.83 -1.08,3.2 -0.41,1.26 -1.62,2.12 -1.77,3.25 -0.55,4.15 0.66,1.23 -0.51,6.05 -0.29,1.15 -0.63,0.96 -0.64,3.15 -0.02,2.12 0.82,5.05 2.43,6.52 0.75,0.67 0.44,0.65 1.21,0.78 1.22,0.21 1.76,0.25 2.8,-0.12 0.86,-0.3 1.85,-0.44 2.46,-1.54 0.97,-1.74 1.09,-1.21 2.16,-2.48 0.96,-1.14 1.07,-1.7 2.14,-2.56 1.6,-1.27 2.73,-3.25 4.42,-4.63 1.58,-1.28 3.24,-2.86 4.33,-4.96zm-35.3 45.4c2.82,0.65 0.96,1.4 3.8,0.55 1.68,-0.51 2.52,0.1 3.71,-0.43 0.34,-0.15 0.68,-0.34 1.1,-0.56 0.91,-0.47 3.76,-1.97 4.46,-2.1 2.3,-0.44 1.94,-0.82 4.78,-1.07 0.56,-0.05 0.68,-0.03 1.24,-0.12 0.72,-0.12 1.76,0 2.54,-0.09 1.25,-0.15 1.23,-0.36 2.26,-0.94l4.1 -3.24c0.58,-0.48 1.52,-0.9 2.12,-1.4 1.45,-1.22 1.28,-0.55 2.12,-1.42 0.75,-0.78 0.2,-0.47 0.58,-1.36 0.4,-0.91 0.56,-0.62 0.94,-1.09 0.39,-0.49 0.35,-0.87 0.86,-1.33 1.48,-1.32 -0.49,-0.22 1.19,-1.88 0.91,-0.9 1.21,-0.75 1.6,-1.48 0.41,-0.75 0.13,-0.62 0.23,-1.11 0.22,-1.12 2.77,-5.44 3.7,-6.66 0.6,-0.78 0.39,-1.36 0.84,-2.21 0.53,-1.02 1.08,-0.82 1.57,-1.51 0.62,-0.89 0.51,-1.29 1.36,-2.17 0.47,-0.49 1.6,-3.69 1.8,-4.38 0.23,-0.74 0.67,-1.48 1,-2.2 0.53,-1.14 -0.27,-0.27 0.8,-2.3 1.23,-2.32 0.35,-1.05 0.74,-2.14 0.26,-0.72 0.29,-0.41 0.39,-1.16 0.07,-0.55 0.14,-0.62 0.41,-1.15l1.92 -3.68c0.31,-0.76 0.01,-0.31 0.16,-1.08 0.48,-0.61 0.36,-0.15 0.78,-0.75 0.22,-0.31 0.45,-0.89 0.65,-1.24 0.44,-0.78 0.41,-0.46 0.75,-0.83 0.29,-0.31 0.47,-0.78 0.69,-1.16 1.15,-0.28 2.71,-2.23 2.72,-2.26 0.2,-0.54 -0.35,-2.85 -1.25,-3.96 -0.45,-0.56 -0.66,-0.66 -1.17,-1.17 -0.73,-0.75 -2.17,-1.44 -3.26,-1.83 -1.33,-0.48 -1.17,-1.47 -2.3,-2.05 -0.83,0.21 -0.75,0.41 -1.41,0.79 -3.59,-1.57 -1.32,-0.74 -2.9,-0.24 -1.84,0.57 -0.68,0.35 -1.94,1.13 -0.45,0.28 -0.69,0.22 -1.01,0.59 -0.38,0.44 -0.34,0.76 -0.79,1 -0.59,0.31 -0.49,-0.11 -1.05,0.39 -0.47,0.42 -0.26,0.56 -0.92,0.65 -0.71,0.1 -0.63,-0.14 -1.16,0.67 0.85,0.81 0.48,0.71 0.99,1.57 0.4,0.67 1.08,1.09 1.43,1.59 -0.38,0.97 -0.91,1.22 -1.01,1.6 -0.3,1.16 -0.02,1.06 0,1.92 -0.12,0.4 -0.09,-0.43 -0.69,1.39 -0.28,0.83 -0.44,0.96 -1.01,1.22l0.09 0.83c-0.76,0.8 -0.91,0.99 -0.91,2.11 0,0.96 -0.1,0.49 -0.5,1.07 -0.77,1.13 0.31,0.81 -0.88,2.51 -0.64,0.91 -0.24,0.57 -0.36,1.18 -0.24,1.33 -1.56,2.42 -1.56,2.42 -0.06,0.51 0.03,0.51 0.07,1.01 -0.21,0.86 -4.34,8.68 -4.88,9.72 -0.91,1.75 -1.9,2.89 -2.86,4.75 -0.41,0.79 -0.88,1.93 -1.29,2.64 -0.3,0.5 -0.56,0.63 -0.8,0.96 -2.01,2.77 -0.54,1.62 -4.23,3.93l-2.69 1.61c-0.49,0.17 -0.57,0.11 -1.05,0.31l-3.88 1.51c-0.81,0.29 -1.3,0.09 -2.1,0.24 -0.88,0.16 -1.41,0.06 -2.25,0.16l-0.67 0.98c-1.17,-0.06 -0.75,-0.39 -1.98,-0.05 -0.49,1.75 -0.35,1.45 -1.73,2.19 -0.46,1.66 0.77,0.06 -1.37,2.17 -0.99,0.96 -2.61,4.49 -2.72,5.76 -0.06,0.64 0.02,1.92 0.09,2.68zm103.19 -45.99c0.74,0.36 2.75,-1.31 4.18,-0.43 -0.27,0.66 -0.42,0.67 -0.62,1.02 -0.14,0.24 -0.23,0.69 -0.43,1.1 -0.83,1.71 -0.59,1.36 -1.39,2.01 0.31,1.54 -2.25,6.79 -3.15,8.28 -0.6,0.99 -1.17,1.83 -1.75,2.79 -2.99,4.92 -2.08,5.55 -6.33,11.36 -1.31,1.78 -2.15,3.73 -3.07,5.34 -0.8,1.4 -2.81,4.35 -3.2,5.91 -0.16,0.59 0.18,0.46 -0.38,1.39l-5.42 10.42c-1.69,3.26 -3.3,8.61 -4.89,11.66 -0.51,0.99 -1.14,2.07 -1.59,3.07 -0.46,1.01 -0.48,1.67 -1.13,2.91 -1.32,2.53 -3.79,8.79 -4.51,11.53 -0.2,0.75 -1.12,2.27 -1.51,3.05 -0.48,0.95 -0.7,1.95 -1.13,2.9 -0.34,0.75 -1.38,2.43 -1.55,3.07 -0.17,0.66 0.21,0.29 -0.36,1.39 -3.65,7.01 -1.73,5.84 -2.12,7.08 -0.62,0.94 -0.75,0.15 -1.23,1.52 -0.38,1.08 -0.13,1.14 0,1.95 0.15,0.96 0.09,3.11 0.81,3.7 0.73,-0.44 0.65,-1.15 2.21,-2.32 0.37,-0.28 0.88,-0.92 1.2,-1.16l2.33 -1.86c0.36,-0.4 0.82,-0.56 1.26,-0.88 0.75,-0.55 1.56,-2.05 1.62,-3.16 0.05,-0.97 1.28,-3.51 1.8,-4.28 0.44,-0.66 0.16,-0.12 0.58,-0.55 0.46,-0.47 0.45,-0.81 1.08,-1.43 0.8,-0.77 2.03,-3.79 2.85,-5.21 0.57,-0.99 2.78,-3.12 3.22,-3.96 0.48,-0.9 0.59,-0.78 1.08,-1.42 0.72,-0.93 0.29,-0.91 0.54,-1.65l0.39 -1.53c0.19,-0.52 0.66,-1.28 0.91,-1.86 0.72,-1.65 1.08,-4.97 2.48,-6.4 0.92,-0.94 2.49,-3.31 2.72,-4.69 0.14,-0.81 0.46,-1.04 0.74,-1.77 0.25,-0.67 0.08,-0.85 0.5,-1.69 1.24,-2.51 0.58,-0.8 1.46,-3.39 0.31,-0.95 1.93,-4.31 2.67,-5.04 1.05,-1.02 4.64,-8.24 5.38,-10.06 0.27,-0.69 0.68,-1.14 0.91,-1.79 0.87,-2.49 1.22,-2.85 2.5,-5.31 0.5,-0.97 2.49,-3.3 3.22,-3.98 0.44,-0.42 0.77,-0.78 1.09,-1.36 0.95,-1.75 1.37,-4.09 1.87,-5.07 0.29,-0.57 0.61,-1.31 0.97,-1.83 0.61,-0.92 1.52,-1.47 2.19,-2.75 1.22,-2.3 2.89,-4.16 3.87,-6.74 0.29,-0.77 0.1,-0.95 0.73,-1.75 0.41,-0.53 0.7,-0.71 1.12,-1.38 1.13,-1.75 0.4,0.06 2.15,-2.98l2.95 -1.13c1.33,-0.65 1.57,-1.51 2.26,-2.96 -2.01,-4.19 -2.56,-3.64 -3.87,-4.55 -0.48,-0.34 -0.26,-0.37 -0.88,-0.87 -2.51,-2.04 0.41,-0.94 -2.77,-2.57 -2.49,0.82 -2.21,0.08 -3.02,0.13 -0.81,0.15 -0.9,0.65 -1.66,0.83 -2.24,0.54 -2.6,0.19 -3.59,1.22 -0.72,0.74 -0.79,0.94 -1.8,0.79 -0.61,0.96 -0.41,0.61 -1.15,1.22 -0.57,0.45 -0.67,0.77 -1.32,1.11 -1.21,0.64 -1.71,1.56 -2.02,3.01zm-24.96 39.64c0.82,0.42 1.56,0.51 2.26,0.26 0.78,-0.27 1.54,-0.09 2.19,-0.37 0.83,-0.36 1.08,-0.94 1.73,-1.42 0.8,-0.6 0.94,-0.22 1.93,-1.26 0,-2.08 1.1,-2.54 1.2,-4.25l-0.65 -0.7c0.2,-1.16 0.32,-0.29 -0.24,-2.22 -0.86,-2.93 -0.37,-1.31 0.94,-3.91l-0.4 -0.71c0.78,-1.54 0.55,-1.19 1.76,-2.57 0.39,-0.44 0.29,-0.08 0.68,-0.66 0.21,-0.3 0.49,-0.91 0.66,-1.26 -0.42,-0.56 -0.33,-0.55 -0.47,-1.18 0.31,-0.33 0.46,-0.41 0.8,-0.95 0.55,-0.88 0.51,-0.45 0.93,-1.07l3.48 -4.39c0.49,-0.51 1.53,-1.34 1.78,-2.14 -0.94,-0.01 0.03,0.11 -1.96,0.76 -0.69,0.22 -1.48,0.49 -1.96,1.06l-3.43 3.76c-0.42,0.37 -0.96,1.11 -1.77,1.67 -1.84,1.28 -3.78,3.85 -5.7,4.2l-0.33 -1.14c-1.56,-0.62 -2.08,0.54 -3.2,1.4l-2.72 2.76c-0.01,0.56 0.1,0.32 0.01,0.97 -0.16,0.34 -1.53,0.84 -2.29,1.96 0.9,1.57 -0.4,-0.22 0.84,3.05 0.3,0.79 -0.52,1.34 -0.36,3.56 0.24,3.3 -0.29,3.01 2.43,3.75 0.75,0.2 1.14,0.67 1.86,1.04zm-34 -19.18l0.94 0.44c0.21,1.01 -0.02,2.97 0.05,4.08 0.05,0.79 0.52,2.27 1.08,2.73 0.52,0.44 0.49,0.52 0.79,0.77 0.99,0.81 3.43,1.27 4.57,1.61 1.33,0.39 2.38,-1.14 3.63,-1.35 0.14,-0.25 0.37,-0.74 0.52,-0.94 0.8,-1.05 0.45,0.2 1.34,-2.37 0.46,-1.33 -0.15,-2.16 0.51,-3.48 0.65,-1.33 1.63,-2.46 1.2,-3.58 -0.45,-1.15 -0.62,-2.02 0.07,-3.36 0.81,-1.54 1.63,-2.99 2.71,-3.97l2.17 -2.44c0.27,-0.41 0.47,-0.96 0.73,-1.38l6.81 -7.61c0.8,-0.71 0.82,-1.44 2.09,-0.81 -0.11,2.01 -0.62,1.67 -1.06,3.26 -0.44,1.6 -1.83,2.32 -2.02,2.93 -0.06,0.78 0.03,0.78 -0.42,1.73 -0.82,1.73 -1.66,2.48 -1.85,2.77 -0.18,0.29 -0.07,0.64 -0.37,1.33 -0.68,1.55 0.26,0.93 -1.27,2.46 -0.21,1.84 -0.32,1.08 -1.19,2.3 -1.03,1.44 -0.72,1.11 -0.99,2.47 -0.38,1.91 -2.56,5.09 -3.65,7.18l-1.52 2.53c-0.34,0.57 -0.17,0.66 -0.61,1.29 -0.62,0.87 -0.65,1.91 -1.18,2.78 -0.71,1.17 -0.34,0.29 -0.48,1.26 -0.21,1.53 -0.81,1.74 -1.4,2.87 -0.53,1.04 -0.43,1.17 -1.2,2.29 -0.77,1.11 -0.64,0.51 -1.57,2.3l-2.31 4.45c-1.05,1.82 -1,0.86 -2.58,4.3l-0.77 2.13c-0.79,1.52 -0.86,1.42 0,2.56 0.86,1.15 -0.27,2.46 1.07,6.06 0.21,0.55 0.44,0.69 0.64,1.18 0.63,0.14 0.63,0.07 1.51,0.36 0.99,-0.44 1.14,-0.92 2.03,-1.3 0.38,-0.16 0.71,-0.38 1.12,-0.47 1.56,-0.35 0.21,0.51 1.85,-0.66 0.15,-0.11 0.51,-0.24 0.65,-0.34 0.51,-0.39 0.54,-0.99 1.18,-1.56 1.37,-1.21 0.39,-1.94 1.12,-3.34 0.53,-1.01 0.74,-0.62 1.35,-1.83 0.47,-0.94 0.92,-3.65 1.45,-4.28 0.42,-0.51 1.13,-0.63 1.5,-1.38 0.34,-0.69 0.27,-2.9 1.57,-3.92 0.5,-0.4 0.33,-0.3 0.51,-0.73 0.42,-0.98 1.41,-0.68 2.59,-3.9 0.23,-0.62 0.37,-0.3 0.37,-0.98 0,-2.04 -0.38,-0.97 0.86,-3.36 1.22,-2.33 2.08,-2.31 3.41,-5.05 0.46,-0.93 0.12,-0.59 0.29,-1.24 0.6,-2.24 4.06,-4.52 4.23,-5.56 0.09,-0.49 -0.05,-0.85 0.23,-1.42 0.3,-0.61 0.61,-0.69 0.87,-1.48 0.6,-1.84 2.07,-4.38 3.04,-6.22 0.78,-1.5 0.92,-2.26 2.05,-3.21 0.11,-0.65 -0.14,-0.75 0.48,-1.3 0.58,-0.5 0.49,-0.75 1.02,-1.28 0.81,-0.82 0.16,-0.57 0.56,-1.15 0.43,-0.63 -0.01,0.15 0.46,-0.44l1.61 -1.82c0.61,-0.56 0.47,-0.55 1.14,-0.81 1.64,-0.63 1.12,-0.95 2.33,-1.9 -0.14,-1.28 -0.38,-0.96 0.29,-2.12 -0.34,-0.74 -0.24,-1.32 -1.28,-1.9 -0.35,-0.5 -0.16,-0.15 -0.16,-0.82 -0.67,-0.48 -1.07,-0.95 -1.81,-1.37 -0.74,-0.42 -1.52,-0.72 -2.21,-1.23l-0.17 -1.2c-0.91,-0.43 -1.25,-0.7 -1.84,-0.37 -0.81,0.45 -0.81,0.67 -1.37,1.35 -0.94,-0.28 -1.31,-0.97 -2.15,-1.41 -1.23,0.48 -0.99,0.19 -1.67,1.47 -1.76,-0.25 -1.36,-0.28 -2.28,1.41 -0.58,0.05 -1.08,-0.13 -1.55,0.21 -0.42,0.3 -1.06,1.1 -1.39,1.29l-1.39 0.87c-1.79,0.78 -1.4,1.58 -2.36,2.71l-4 4.31 -5.47 4.56c-1.39,1.02 -2.68,2.26 -4.32,2.95l-1.56 0.8c-0.9,-0.8 -1.45,-1.34 -2.8,-2.09 -0.76,-0.01 -1.6,0.08 -2.18,0.44 -0.24,0.65 -0.02,1.51 -0.3,1.94 -0.35,0.54 -0.97,0.39 -1.51,1.4 -0.55,1.01 -0.26,1.49 -0.66,2.19 -0.33,0.58 -0.49,0.48 -0.63,0.69 -0.14,0.19 -0.12,0.58 -0.26,0.99 -0.24,0.36 -0.42,0.06 -1.22,1.59 0.22,0.38 0.28,0.67 0.39,1.14z"/>
  <path class="fil2" d="M1340.99 1920.78c-0.08,1.14 -0.13,1.79 0.51,2.48 1.33,1.44 -0.32,1.08 1.09,1.88l-0.09 1.21c1.57,1.33 1.18,0.62 1.68,1.17 0.26,0.28 0.31,0.51 0.59,0.78 0.4,0.39 0.5,0.22 0.65,0.84 -0.58,0.55 -2.26,0.97 -2.27,0.97l0.89 0.59c-0.4,0.71 -0.44,0.02 -0.88,0.91 1.43,0.39 0.93,-0.06 1.75,0.93 0.86,0.15 1.12,0 1.9,0.06 0.71,0.06 1.5,0.22 2.23,0.3 1.18,0.13 3.06,0.15 4.07,0.61 0.59,0.26 0.59,0.54 1.51,0.69 2.56,0.43 1.59,0.16 2.51,1.89 0.24,0.44 0.83,0.89 1.13,1.12l-0.14 1.48c0.8,0.59 0.72,0.11 1.36,0.98 1.69,2.26 2.55,1.23 4.38,0.98l1.54 -0.23c1.22,-0.24 3.1,-1.08 3.74,-2.16 0.54,-0.92 0.78,-4.4 0.5,-5.14 -0.98,-2.67 -4.14,-3.5 -5.15,-4.79 -0.83,-1.07 -0.68,-1.55 -1.47,-2.4 -1.66,-0.3 -1.51,0.15 -3.12,-0.03 -0.69,-0.44 0,-0.38 -1.18,-0.94l-5.82 -2.84c-0.77,-0.39 -1.03,-0.05 -1.62,-0.58 -1,-0.9 -1.07,-0.16 -2.89,-1.46 -0.77,0.21 -0.53,0.4 -1.34,0 -0.64,-0.31 -1.09,-0.14 -1.69,-0.39 -0.58,-0.24 0.14,-0.25 -1.58,-0.45 -1.14,-0.13 -1.78,-1.06 -2.47,0.22 -0.5,0.92 0.08,0.53 -0.81,0.98l0.49 0.34zm-49.24 -20.91c0.46,-0.03 0.15,0.31 1.2,-1.03l2.32 -2.18c0.79,-0.54 0.57,-0.16 1.1,-1.11 1.56,-0.15 1.64,-0.04 2.34,0.95 0.37,0.5 0.59,0.48 0.88,0.87 0.37,0.48 0.54,0.92 1.53,1.89 0.24,0.23 0.68,0.52 1,0.77 1.7,1.4 5.77,0.49 6.74,-2.22 0.63,-1.78 1.61,-3.63 1.22,-5.55l-1.51 -5.04c-0.76,-1.5 -1.13,-1.61 -2.13,-2.99 -0.46,-0.64 -0.51,-0.36 -1.02,-0.9 -0.52,-0.55 -0.43,-0.42 -0.95,-0.81 -0.77,-0.59 -0.29,-1.01 -1.95,-1.56 -2.19,-0.74 -5.86,-4.36 -8.22,-2.14 -1.58,1.49 -1.82,0.82 -3.15,2.31 -0.53,0.59 -0.11,0.63 -1.14,1.7 0.55,1.17 1.08,1.39 1.48,1.94 2.25,3.08 1.21,1.61 2.82,4.31 2.95,4.95 3.2,3.43 -1.35,8.6 -0.49,0.55 -1.56,1.44 -1.21,2.19zm-7.55 38.08c2.45,0.28 2.73,-0.99 3.93,-3.1 0.59,-1.03 2.44,-3.15 3.14,-3.7l2.48 -2.38c0.4,-0.4 0.59,-0.4 0.99,-0.71l1.58 -1.73c0.58,-0.65 1.41,-0.95 1.87,-1.59l-0.6 -0.58 0.07 -0.87 2.14 -2.19c-0.12,-0.14 -0.26,-0.31 -0.43,-0.57 0.16,-0.38 0.55,-0.8 0.62,-1.32 0.08,-0.68 -0.55,-2.2 1.9,-4.1l3.31 -2.5c0.69,-0.32 0.94,0.03 1.06,-1.03 -0.74,-0.08 -3.21,1.23 -3.73,1.61 -0.28,0.21 -2.88,1.58 -3.59,1.75 -1.11,0.26 -0.99,0.4 -2.87,0.7 -2.42,0.38 -7.3,1.63 -9.31,3.23 -1.7,1.35 -2.91,-0.36 -3.94,-1.08 -0.75,-0.52 -0.62,-1.41 -2.18,-1.85l-0.88 -1.68c-1.21,0.56 -1.58,2.69 -1.58,2.69 -0.58,0.53 -0.51,0.37 -1.1,0.67 0.01,0.78 0.02,0.25 0.15,0.74 0.34,1.36 -0.63,0.68 -0.41,2.36 0.33,2.58 -1.14,4.46 -1.19,4.64 -0.78,2.85 0.02,3.08 0.41,4.89 0.13,0.57 0.1,1.02 0.21,1.55 0.14,0.71 0.38,0.16 0.5,1.32 0.2,1.96 1.11,1.94 1.78,2.18 1.14,0.4 2,0.48 2.98,1.2 0.79,0.59 1.15,1.28 2.69,1.45zm52.23 -32.34c0.41,-0.69 0.89,-0.69 2,-0.89l3.41 -0.62c0.85,-0.05 0.67,-0.07 1.28,-0.16l5.05 -0.54c1.03,0.09 1.31,-0.21 2.61,-0.06 1.27,0.15 1.4,-0.12 2.61,-0.05 1.12,0.07 0.5,-0.13 1.25,-0.19 0.36,-0.03 1.19,0.11 1.59,0.16 -0.54,1.25 -1.06,0.64 -1.95,1.13 -1.59,0.87 -5.08,1.81 -6.97,2.25 -0.36,0.08 -2.25,0.21 -2.66,0.19 -0.86,-0.05 -0.68,0.13 -1.25,0.17 -0.53,0.04 -1.18,-0.08 -1.65,-0.09 -1.74,0 -3.77,-0.64 -5.32,-1.3zm-50.06 87.83c-0.1,0.84 -0.21,0.49 0.02,1.07 0.95,-0.1 1.46,-0.85 2.28,-1.29 1.56,-0.83 1.65,0.4 5.33,-1.93 0.57,-0.36 1.66,-0.63 2.54,-1.14l2.12 -1.43c0.64,-0.47 1.76,-0.85 2.39,-1.33l3.12 -2.55c0.57,-0.39 0.49,-0.53 0.97,-0.94 1.98,-1.71 3.88,-3.66 5.64,-5.65 0.77,-0.88 0.9,-1.71 1.48,-2.45 0.52,-0.67 0.42,-0.4 0.54,-1.48 0.24,-2.1 1.53,-3.7 2.53,-5.42 0.64,-1.11 1.27,-2.85 2.26,-3.57 -0.13,-0.8 -0.21,-2.68 -0.66,-3.15 1.1,-2.48 2.49,-5.16 0.77,-7.87l-2.18 -2.79c-0.96,-1.24 -0.48,-1.9 -3.08,-2.06 -0.94,1.07 -0.57,0.72 -1.15,2.26 -0.16,0.4 -0.42,0.86 -0.51,1.18 -0.41,1.55 -0.29,2.18 -1.17,4.14 -0.48,1.08 -0.45,1.43 -1.57,1.98 0.36,1.67 -0.22,1.2 -0.41,2.38 -0.09,0.54 0,0.78 -0.24,1.27l-2.68 5.25c-0.57,0.77 -0.54,1.43 -0.95,2.14 -0.17,0.28 -0.47,0.56 -0.71,0.87 -0.36,0.46 -0.28,0.57 -0.55,1.08 -0.41,0.78 -0.79,1.19 -1.28,1.71 -0.54,0.57 -0.59,1.49 -1.66,1.33 0.05,-0.83 0.64,-1.3 1.17,-1.73 0.14,-0.84 0.1,-1.42 0.41,-2.22 0.32,-0.84 0.76,-1.04 0.99,-1.52 0.2,-0.42 0.11,-0.69 0.22,-1.11 0.16,-0.62 0.24,-0.33 0.4,-0.84 0.35,-1.08 -0.12,-1.23 -0.08,-2.25 0.03,-0.75 0.1,-1.53 0.12,-2.25l0.71 -4.56c0.22,-0.78 0.7,-1.27 0.22,-1.94 0.8,-0.86 0.54,-0.72 1.06,-1.91 0.24,-0.54 0.44,-0.46 0.58,-0.88 0.15,-0.47 -0.01,-0.85 0.01,-1.33 0.67,-0.23 0.9,-0.1 1.57,-0.57 2.35,-1.64 1.52,-4.46 2.04,-5.49 0.38,-0.37 0.79,-0.58 1.13,-0.92l0.2 -1.75c0.63,0.19 0.42,0.2 0.97,0.58 1.32,-0.27 1.14,-0.33 1.91,-1.03 0.76,-0.68 1.41,-0.38 1.94,-0.88 0.03,-0.04 0.03,-0.09 0.08,-0.11l0.18 -0.36c0.42,-0.91 0.63,-0.59 1.07,-1.01 0.32,-0.32 0.08,-0.34 0.69,-0.7 1.04,-0.6 0.76,-0.81 1.47,-1.29l3.1 -1.01 2.71 1.12c1.1,0.49 1.59,0.98 2.18,1.65 -0.11,1.13 -0.68,2.84 -0.97,5.66 -0.21,1.94 -0.4,3.77 -0.65,5.83 -0.25,2.05 -0.49,4.12 -0.7,6.18 -0.11,1.14 0.15,1.6 0.04,2.79 -0.09,1 0.06,0.68 0.15,1.3 0.09,0.64 -0.23,0.68 -0.43,1.17 0.54,0.58 0.1,2.24 -0.01,3.22 -0.09,0.87 -0.16,2.87 -0.32,3.5 -0.75,0.14 -0.92,-0.15 -1.41,-0.4 0.05,0.7 0.13,0.62 0.52,1 0.45,0.43 0.34,0.36 0.63,0.88 -0.48,1.35 -0.8,2.07 -2.37,1.29 -0.72,-0.35 -0.96,-0.25 -1.67,-0.7 -1.14,-0.71 -1.82,0.04 -2.66,0.69 -0.2,1.39 0.17,1.2 0.34,2.26 0.25,1.53 -1.18,3.78 0.77,6.89 0.83,1.33 1.08,2.19 2.34,3.28 0.7,0.61 0.68,0.96 1.38,1.56l1.41 1.53c1.29,1.52 1.86,3.75 2.68,5.52l2.52 4.39c1.49,1.57 0.77,0.97 1.91,2.53 0.39,0.53 0.75,1.28 1.22,1.71 0.5,-0.49 1.1,-0.79 1.69,-1.16l0.17 -1.21 0.96 0.16 0.18 -0.95c1.1,-0.65 0.97,-0.71 0.91,-1.98l0.85 -1.09c-0.27,-0.63 -0.62,-1.12 -0.07,-2.2 0.64,-1.25 2.9,-2.88 2.03,-5.71 -0.44,-1.45 -1.24,-2.89 -2.1,-4.1 -0.86,-1.21 0.43,-0.48 -2.09,-1.93 -0.18,-1.17 0.2,-0.74 -0.64,-1.53 -0.65,-0.6 -0.42,-0.78 -0.88,-1.32 -1.62,-1.88 -0.45,-1.84 -0.4,-3.28 0.07,-2.03 1.33,-1.41 1.74,-2.66 0.27,-0.82 -0.39,-2.81 0.21,-4.24 0.14,-0.33 0.67,-0.86 0.95,-1.35 0.61,-1.12 0.15,-1.05 0.06,-1.76 -0.11,-0.98 -0.39,-3.06 -0.29,-3.99 0.08,-0.68 0.45,-1.67 0.45,-1.8l-0.31 -1.9c-0.23,-1.32 0.6,-2.9 0.75,-4.2 0.16,-1.36 0.34,-5.39 0.91,-6.48 0.57,-1.07 -0.15,-0.69 0.3,-1.95 0.26,-0.74 0.35,-1 0.72,-1.67 0.79,-1.42 1.31,-1.21 1.11,-3.27 -0.09,-0.85 -0.96,-2.16 -1.84,-2.74 -0.95,-0.62 -1.63,-1.39 -2.62,-1.98 -1.43,-0.84 -1.51,-0.85 -2.65,-2.1 -1.08,-1.19 -3.31,-0.43 -5.7,-0.92 0,-1.3 3.37,-3.31 4.38,-4.41 1.41,-1.55 1.19,-1.86 3.06,-2.82 0.78,-0.39 0.76,-1.01 1.24,-1.77 0.61,-0.99 0.32,-1.41 0.65,-2.49 0.28,-0.9 0.68,-1.68 0.87,-2.27 0.02,-0.2 -0.33,-0.29 -0.03,-2.95 0.19,-1.61 -0.17,-1.69 0.01,-3.13 0.21,-0.21 0.42,-0.32 0.55,-0.47 0.26,-0.29 0.22,-0.44 0.45,-0.81 1.34,-2.21 1.32,-4.15 3.69,-3.26 1.21,0.46 0.47,0.2 1.67,-0.01 0.88,-0.16 1.31,0.34 1.83,0.28 0.7,-0.07 1.15,-0.27 2.02,0.17 0.82,0.42 1.15,0.27 2.13,0.49l0.17 0.98c1.01,0.39 1.65,0.41 2.59,0.87 2.23,1.09 0.2,0.99 1.17,1.87 1.72,1.53 2.89,-1.17 4.58,1.34l0.75 0.1c0.8,-0.82 2.16,-1.26 3.11,-1.91 1.13,-0.77 1.98,-0.77 3.09,-2.01 0.61,-0.68 1.58,-0.36 2.46,-1.03l3.73 -3.14c1.75,-1.4 2.4,-1.56 2.7,-4.73 -1.43,-1.32 -1.39,-2.72 -4.12,-3.68 -2.35,-0.83 -2.04,-1.05 -3.54,-1.85 -1.52,-0.83 -2.28,-0.99 -3.95,-0.5 -1.94,0.58 -2.41,0.55 -4.43,0.32 -1.24,-0.14 -1.28,-0.06 -2.31,0.02 -0.85,0.07 -1.69,-0.2 -2.54,-0.2 -0.9,0 -1.03,0.22 -2.26,0.08 -0.66,-0.07 -1.99,-0.3 -2.58,-0.28 -0.61,0.03 -0.36,0.17 -0.9,0.21 -0.33,0.03 -1.01,-0.08 -1.37,-0.12 -2.28,-0.28 -1.4,0.33 -5,-0.23 0.12,-0.98 1.25,-1.7 1.88,-2.5 0.35,-0.44 0.55,-0.46 0.88,-0.67 1.1,-0.71 1.93,-2.12 2.81,-3.13 0.53,-0.61 1.04,-0.98 1.43,-1.53l3.23 -5.95c-0.06,-0.43 -0.68,-1.72 -0.92,-2.08 -1.34,-2.07 -7.23,-1.71 -7.84,-2.07 -0.82,-0.47 0.24,-0.66 -1.95,-0.84l-1.55 1.78c-0.65,0.59 -1.58,0.79 -2.22,0.95l-3.17 1.7c-0.49,0.21 -0.65,0.2 -1.38,0.23 -0.54,0.58 -0.58,0.99 -0.98,1.32 -0.48,0.4 -0.82,0.22 -1.11,1.17 0.34,0.92 0.7,0.62 1.14,1.52 -0.46,1.18 -0.71,2.2 -1.41,3.4 -0.52,0.88 -4.18,3.69 -4.94,4 -1.12,0.46 -2.06,0.8 -2.64,1.97 -1.33,-0.01 -1.35,0.81 -2.03,1.57 -0.91,1.04 -0.61,0.06 -1.73,2.32 -0.36,0.73 -0.77,1.17 -1,1.71 -0.39,0.91 0.35,0.66 0.16,1.74 -0.16,0.92 -0.6,0.81 -0.43,2.08 0.19,1.44 0.47,0.91 0.74,1.75 0.19,0.54 0.12,1.6 0.07,2.29l1.26 0.04 0.13 0.81c0.58,0.06 0.7,-0.02 1.11,-0.03l0.19 0.75c0.96,-0.32 1.28,-1.29 3.12,-2.1 0.6,-0.26 0.56,-0.46 1.26,-0.64 0.41,0.33 0.28,0.25 0.56,0.64 1.22,0.12 0.78,-0.44 1.68,-0.05 0.17,0.83 -0.6,0.5 -0.78,1.89 0.22,0.82 0.24,-0.03 0.24,0.89 0,0.41 -0.16,0.93 -0.14,1.37 0.07,1.25 0.35,0.47 -0.06,2.09l0.46 0.36c-0.09,1.41 -0.37,0.82 -0.53,1.71 -0.18,0.95 0.24,0.88 -0.13,1.98 -0.46,1.37 -0.25,1.4 -0.91,2.58 -0.21,0.37 -0.22,0.57 -0.38,0.9 -0.62,0.58 -1,0.39 -1.56,0.99 -0.41,0.44 -0.09,0.31 -0.57,0.64 -0.46,0.32 -0.38,0.09 -0.82,0.56 -0.7,0.76 -0.59,0.59 -1.48,1.08 -0.53,0.29 -1.01,0.65 -1.73,0.75 -0.78,2.25 -1.16,1.1 -2.16,2.2 -0.46,0.51 -0.52,0.71 -1.04,1.23 -0.43,0.44 -0.79,0.56 -1.11,1.15 -0.51,0.96 -0.88,2.18 -1.39,3.35 -0.63,1.46 -1.32,1.59 -2.9,1.47 -0.69,0.47 -1.94,0.85 -2.61,1.01l-4.05 1.4c-1.19,0.65 -1.54,0.79 -2.01,1.79 -0.24,0.49 -0.62,0.54 -1.09,0.96 0.17,0.91 0.25,0.56 0.12,1.75 -0.2,1.83 -1.69,2.95 -2.03,4.5 -0.26,1.13 0.06,2.42 -0.25,3.58 -0.5,1.86 -0.17,1.86 -1.09,3.53 0.06,0.81 0.28,0.33 0.2,1.4 -0.06,0.68 -0.14,1.19 -0.32,1.81 -0.21,0.71 0.05,0.77 -0.01,1.63 -0.04,0.53 -0.2,1.31 -0.27,1.89 -0.09,0.69 -0.27,0.98 -0.34,1.53 -0.09,0.7 0.13,0.98 -0.06,1.7l-0.08 1.54c0.04,0.7 -0.06,0.76 -0.5,1.2 0.38,1.58 0.24,1.2 -0.16,2.76 0.84,1.07 0.19,1.28 0.15,3.15l0.44 3.23c0.08,0.21 0.31,0.6 0.42,0.93 0.37,1.14 0.45,0.82 1.1,1.61 -0.8,1.35 -2.5,2.49 -3.8,3.25 -1.03,0.6 -3.34,2.45 -3.95,3.28 -0.63,0.87 -1.12,1.07 -1.67,2.02 -0.2,0.35 -0.45,0.87 -0.63,1.16 -0.74,1.15 -1.85,2.23 -2.04,3.7 -0.26,1.96 -1.21,1.43 -1.08,2.59 1.26,0.38 1.63,-1.06 3.02,-0.97z"/>
  <path class="fil2" d="M1774.76 1768.36c-0.42,1.46 -1.06,3.97 1.27,4.3 1.35,0.19 1.04,-0.17 2.54,0.37 0.39,0.15 0.36,0.08 0.72,0.17 1.91,0.48 2.76,3.31 3.62,4.99 0.34,0.66 0.77,1.32 1.18,1.97 1.15,1.83 0.46,2.04 -1.07,3.21 -1.4,1.08 -1.61,1.63 -1.99,2.88 -0.25,0.81 -0.78,1.73 -0.09,2.51 0.87,0.97 1.43,-0.47 2.49,-0.51 0.59,-0.03 0.84,0.28 1.41,0.4 1.07,0.22 2.29,-0.86 3.38,-1.08 0.76,-0.15 0.79,0.03 1.78,-0.44 1.82,-0.85 3.81,-2.33 4.87,-2.73 1.19,-0.45 2.03,-2.89 4.66,-5.01 3.55,-2.86 3.37,-4.1 4.67,-5 0.78,1.32 -0.31,3.9 -0.62,5.33 -0.63,2.96 -1.75,4.19 -2.21,5.75 -0.11,0.39 0,0.39 -0.22,0.83 -0.65,1.32 -1.56,2.01 -2.48,3.07 -0.49,0.56 -0.48,0.92 -0.99,1.5 -0.81,0.94 -3.61,3.53 -3.95,4.48 -0.97,2.71 -2.92,3.3 -3.63,4.41 -1.02,1.59 -2.03,2.3 -1.99,3.18 0.07,1.54 1.9,1.53 2.82,1.54 1.44,0.02 7.16,-2.9 7.69,-2.39 0.61,0.59 -0.14,3.54 -0.25,4.37 -0.14,0.98 0.01,1.06 -0.31,2.56l-1.5 6.8c-0.34,1.29 -0.27,2.21 -0.93,3.41 -0.61,1.11 -0.88,2.14 -1.44,3.3 -0.75,1.57 -1.2,3.26 -2,4.93 -0.71,1.49 -1.13,1.92 -1.87,3.2 -0.22,0.36 -1,1.17 -1.3,1.42 -1.71,1.38 -2.03,0.77 -3.27,2.78 -1.12,1.82 -1.16,6.1 -0.6,7.05 0.7,1.18 1.98,1.83 3.27,1.8 2.34,-0.05 3.73,-1.78 4.83,-3.49 0.35,-0.55 0.85,-0.92 1.2,-1.45 1.27,-1.95 1.82,-1.95 2.47,-2.94 0.79,-1.19 2.97,-3.35 4.2,-4.41 1.49,-1.28 2.64,-3.03 3.8,-4.51 0.74,-0.95 1.37,-2.27 2.68,-2.56 0.66,1.05 -0.6,4.35 -0.74,5.27 -0.07,0.45 -0.09,0.8 -0.18,1.34 -0.21,1.25 -0.85,2.59 -1,3.9 -0.11,0.92 -0.41,1.68 -0.62,2.62l-1.12 5.25c-0.19,0.89 -0.48,1.58 -0.71,2.47 -0.69,2.56 -0.65,5.32 -1.17,8 -0.16,0.87 -1.11,1.94 -1.14,2.37 -0.03,0.41 0.25,0.89 0.21,1.43 -0.05,0.6 -0.34,0.59 -0.13,1.34 0.14,0.51 0.4,0.95 0.54,1.52 0.1,0.39 0.13,0.95 0.28,1.44 0.15,0.52 0.46,0.98 0.61,1.51 0.45,1.64 0.03,2.35 1.88,4.13 0.39,-0.22 0.67,-0.5 0.97,-0.66 0.72,-0.37 0.46,-0.03 0.97,-0.16 0.29,-0.07 1.75,-1 2.02,-1.22 0.31,-1.11 0.12,-1.79 0.09,-2.96 -0.15,-5.11 1.7,-8.33 2.72,-12.9 0.61,-2.71 0.65,-5.9 1.54,-8.54 0.55,-1.63 0.78,-2.44 1.02,-4.28 0.08,-0.66 -0.06,-1 -0.01,-1.51 0.36,-3.47 0.51,-3.79 1.61,-7.14 0.8,-2.49 2.81,-4.82 4.95,-6.38 0.26,-0.19 0.46,-0.38 0.78,-0.45 1.66,-0.34 1.22,2.73 1.19,3.55 -0.05,1.43 0.03,4.57 0.38,5.86 0.24,0.91 0.16,1.58 0.41,2.48 0.36,1.28 -0.12,1.25 0.17,2.31 1.38,5.06 -0.28,4.09 2.38,7.17 0.54,0.62 0.32,1.46 1.26,2.26 1.61,1.37 2.25,2.53 3.96,2.87l3.45 0.28c2.05,-0.16 4.05,-0.74 6.07,-1.34 1.02,-0.3 1.39,-0.1 2.49,-0.43 1.07,-0.33 1.44,-0.35 2.37,-0.55 3.18,-0.7 5.12,-1.91 7.91,-3.48 0.81,-0.46 1.63,-0.74 2.48,-1.25 2.71,-1.61 8.65,-3.59 10.36,-5.87 0.43,-0.57 1.35,-1.56 1.51,-2.02 0.46,-1.34 0.69,-2.82 1.72,-4.24 0.97,-1.34 1.22,-1.6 1.5,-3.16 0.16,-0.92 1.29,-2.39 0.35,-3.26 -1.77,-0.87 -1.41,0.22 -3.06,-2.18 -0.55,-0.79 -2.28,-1.92 -3.02,-2.22 -1.19,-0.49 -2,-1.59 -3.03,-2.65 -0.4,-0.42 -1.78,-1.11 -2.99,-2.19 -1.91,-1.71 -1.44,-1.06 -2.4,-3.32 -0.38,-0.92 -0.71,-1.15 -1.33,-1.6 -0.78,-0.58 -0.92,-0.49 -1.57,-0.82 -3.11,-1.58 -3.61,-4.18 -5.64,-5.89 -0.65,0.55 -0.24,0.04 -0.36,0.71 -0.06,0.35 -0.06,0.33 -0.17,0.66 0.54,1.08 1.31,2.03 1.86,3.11 0.52,1.03 0.64,1.61 1.4,2.79 0.6,0.93 1.15,2.06 1.63,3.05 0.48,0.99 0.63,1.88 1.01,2.73 0.48,1.06 0.95,1.87 1.38,2.98l0.99 2.76c0.65,1.42 2.7,4.3 2.74,5.12 0.04,0.53 0.06,0.21 -0.12,0.63 -0.31,0.42 -5.82,3.31 -6.81,3.79 -3.43,1.67 -8.23,4.41 -11.91,4.77 -1.73,0.17 -2.28,0.57 -3.28,0.68 -0.63,0.07 -0.79,-0.05 -1.52,0.06 -0.98,0.15 -2.25,0.36 -2.81,-0.7 -0.41,-0.76 -1.95,-5.55 -2.04,-6.59l-0.66 -6.29c-0.66,-1.95 -0.38,-1.48 -1.81,-2.91 -0.69,-0.68 -1.86,-1.47 -2.6,-1.74 -0.89,-0.33 -2.02,-0.9 -2.97,-0.72 -1.51,0.3 -1.97,0.96 -3.34,1.43 -0.75,-0.93 -0.02,-1.65 0.48,-2.59 0.67,-1.26 1.8,-3.59 2.21,-5 0.2,-0.71 -0.02,-1.76 0.07,-2.74 0.13,-1.24 0.21,-1.39 0.98,-2.54 0.61,-0.94 3.15,-3.69 3.6,-4.68 0.24,-0.53 0.03,-0.8 0.02,-1.37 -0.01,-0.62 0.17,-0.84 0.25,-1.32 -0.65,-1.31 -0.59,-0.47 -1.52,-1.29 -0.28,-0.46 0.01,-1.05 0.08,-1.47 -1.05,-0.86 -2.46,-1.17 -3.91,-0.51 -6.4,2.92 -3.84,3.96 -6.43,6.43 -0.66,0.63 -0.8,1.07 -1.28,1.7l-3.94 4.96c-0.52,0.69 -0.77,1.16 -1.21,1.74 -0.42,0.57 -0.96,0.97 -1.44,1.53 -0.58,0.68 -0.54,1.1 -1.25,1.72 -1.67,1.48 -1.98,3.6 -4.5,4.77 -0.41,-1.05 0.56,-2.21 0.87,-3.11 0.32,-0.96 1.17,-2.06 1.56,-3.02 0.38,-0.95 0.16,-1.3 0.35,-2.05 0.13,-0.51 0.6,-1.56 0.77,-2.08 0.31,-0.92 0.17,-1.37 0.38,-2.16 0.29,-1.11 1.06,-2.84 1.68,-4l2.58 -3.9c2.44,-3.37 2.66,-5.27 4.27,-7.92 0.49,-0.81 0.49,-1.26 0.66,-2.1 0.15,-0.69 0.92,-1.12 1.35,-1.76 -0.45,-0.36 -0.71,-0.08 -1.42,-0.02 -0.77,-1.2 0.28,-1.48 -0.61,-2.29 -0.63,-0.56 -0.94,0.03 -1.75,-1.28 0.43,-1.09 2.49,-4.38 3.32,-5.2 1.75,-1.72 2.48,-3.07 4.27,-4.92 0.96,-0.99 1.47,-1.27 1.77,-2.59 0.77,-3.29 0.86,-2.88 -1.47,-5.95 -0.76,-1 -1.6,-1.25 -2.51,-1.56 -1.63,-0.56 -2.18,-1.33 -4.15,-1.59 -2,-0.25 -2.9,0.33 -4.81,1.22 -3.2,1.49 -3.21,3.38 -4.21,4.75 -0.41,0.57 -2.38,1.59 -3.15,2.16 -0.88,0.67 -1.99,1.59 -2.82,2.32 -0.8,0.7 -1.59,1.99 -2.58,2.11 -0.83,-0.04 -0.92,-0.67 -1.42,-1.41 -0.44,-0.67 -1.02,-1.3 -1.37,-2 -0.89,-1.77 0.04,-2.26 -0.51,-3.56 -0.4,-0.93 -0.48,-0.96 -0.69,-1.9 -0.16,-0.72 -0.3,-1.28 -0.93,-1.84 -2.75,-2.45 -7.2,-0.71 -10.31,0.15 -1.26,0.35 -2.91,1.3 -3.35,2.41 -0.56,1.43 -1.1,1.3 -1.43,3.05 -0.11,0.61 -0.12,1.08 -0.29,1.69zm-2.97 57.81c-1.56,0.62 -6.12,0.18 -8.05,-0.8 -0.57,-0.28 -0.98,-0.71 -1.43,-0.85 -1.15,-0.37 -2.1,-0.4 -2.83,-1.83 0.49,-1.13 1.17,-1.05 2.16,-2 2.4,-2.28 1.22,-2.62 4.19,-2.15 0.87,0.14 3.8,-0.2 4.79,0.47 1.34,0.92 0.91,2.35 1.61,4.91 0.27,0.97 0.02,1.54 -0.44,2.25zm-17.07 -15.87c-0.93,-1.65 -0.02,-3.81 -2.32,-4.57 -1.13,-0.37 -1.38,0.05 -2.67,0.7 -0.93,0.47 -2.1,1.11 -2.57,1.87 -3.28,5.2 -2.76,7.91 1.47,12.5 1.92,2.07 3.25,1.66 4.32,3.32 1.77,2.77 1.73,4.31 2.4,5.63 1.53,3.05 3.8,5.26 5.39,8.54 0.95,1.96 2.45,3.88 3.26,5.91 0.41,1.03 0.59,1.79 0.97,2.71 0.39,0.93 1.14,1.9 1.63,2.88 1.61,3.25 3.47,5.81 5.36,8.87 0.71,1.14 1.27,1.36 1.88,2.27 0.89,1.34 0.75,1.7 2.02,2.73 0.57,0.46 5.04,7.1 5.07,8.31 0.05,1.48 0.55,1.37 1.52,2.17 0.95,0.79 1.41,1.65 3.25,2.17 1.41,0.39 2.11,1.02 3.46,1.33 2.06,0.47 3.69,-0.57 4.04,-2.69 0.19,-1.19 -0.2,-1.57 -0.92,-2.7 -0.93,-1.44 -0.81,-1.82 -3.25,-2.67 -0.49,-0.17 -0.63,-0.27 -1.06,-0.77 -0.72,-0.83 -1.14,-1.67 -1.95,-2.49 -2.68,-2.71 -1.62,-1.49 -3.94,-4.82l-3.83 -5.36c-0.75,-0.98 -0.4,-1.69 -1.43,-2.44 -0.76,-0.54 -1.45,-0.93 -2.06,-1.86 -0.74,-1.12 -1.35,-1.58 -1.9,-2.48 -0.62,-1.01 -1.07,-1.97 -1.58,-2.88 -1.05,-1.87 -1.56,-0.58 -2.37,-3.76 -0.12,-0.48 -0.4,-0.9 -0.6,-1.4 -0.79,-1.95 -2.6,-3.86 -3.39,-5.93 -0.47,-1.23 -0.77,-4.68 1.58,-3.57 2.29,1.09 3.21,3.94 6.69,3.55 1.36,-0.15 1.36,0.29 2.42,0.38 1.9,0.17 3.86,-2.61 4.27,-3.77 0.38,-1.06 0.86,-0.94 1.02,-2.27 0.1,-0.8 0.42,-1.57 0.31,-2.43 -0.13,-1.08 -0.47,-1.42 -0.42,-2.61 0.04,-0.83 0.28,-1.66 0.1,-2.49 -0.31,-1.37 -0.15,-1.39 0.1,-2.48 0.22,-0.96 -0.32,-1.64 -0.54,-2.61 1.11,-0.6 0.93,0.05 1.74,-0.36 0.45,-0.24 0.89,-0.78 1.53,-1.13 0.96,0 1.39,0.61 2.51,0.04 -0.16,-1.29 -0.72,-1.57 -0.98,-2.74l1.72 -0.98c-0.72,-1.27 -0.69,-1.04 -0.54,-2.22 0.09,-0.61 0.5,-1.39 0.34,-1.95 -0.33,-1.08 -0.9,-0.97 -0.95,-2.33 -0.05,-1.45 -0.81,-5.67 -1.22,-6.46 -0.81,-1.55 -1.98,-3.13 -2.89,-4.72 -0.71,-0.36 -0.83,-0.25 -1.52,-0.71 -0.62,-0.41 -0.62,-0.4 -1.38,-0.52 -1.58,-0.24 -1.52,-1.01 -2.76,-1.51 -1.1,0.75 -0.43,2.02 -0.93,3.52 -0.57,1.74 -0.22,1.21 -0.13,3.48 0.14,3.38 -0.03,1.55 0.78,4.96 0.21,0.9 0.7,1.62 0.87,2.57 0.07,0.36 0.12,0.91 0.21,1.31 0.11,0.44 0.31,0.74 0.42,1.21 0.17,0.8 0.09,1.78 -0.4,2.26 -0.45,-0.02 -2.04,-0.8 -2.98,-1.05l-2.05 -0.32c-0.47,-0.15 -0.33,-0.27 -0.92,-0.35 -0.91,-0.13 -1.04,-0.07 -2.01,-0.53 -1.66,-0.79 -2.63,0.79 -3.31,-2.11 -0.79,-3.32 -0.35,-1.39 0.27,-4.06 0.78,-3.39 0.03,-4.17 1.97,-5.96 0.65,-0.6 2.17,-2.77 2.47,-3.53 0.81,-2.04 -1.29,-3.16 -1.5,-4.62 -0.29,-2.05 -0.09,-2.35 -2.7,-2.11 -1.41,0.14 -3.02,-1.03 -3.97,-1.23 -2.31,-0.48 -3.02,-1.72 -6.4,1.06 -0.73,0.6 -2.59,0.87 -4,2.94 -0.81,1.2 -2.38,2.42 -3.45,3.46 -2.1,2.05 -1.04,0.55 -3.41,3.34 -0.63,0.74 -1.32,1.08 -1.89,1.7 -0.54,0.59 -0.61,1.08 -1.47,1.74 -1.25,0.98 -2.52,2.25 -2.81,3.5 0.11,1.56 3.72,1.17 4.71,1.25 1.39,0.11 0.73,0.37 2.51,-0.04 0.67,-0.16 0.65,-0.04 1.26,-0.02 0.84,0.02 3.01,-0.32 3.75,-0.76 0.68,-0.4 2.17,-1.21 2.58,-1.72 0.35,-0.44 0.33,-0.63 0.57,-1.12 0.19,-0.38 0.55,-0.72 0.76,-1.08 0.5,-0.82 0.23,-1.6 1.7,-1.5 0.64,1.3 0.14,2.43 -0.05,3.39 -0.2,1.02 0.28,2.05 0.07,3.28l-0.79 3.07c-0.41,1.04 -0.08,2.24 -1.06,2.87z"/>
  <path class="fil2" d="M1702.91 1897.9c1.42,0.24 2.04,1.29 3.21,2.81 1.45,1.89 1.22,2.08 1.84,4 0.56,1.76 0.93,5.6 1.03,7.53 0.06,1.12 -0.49,2.36 -0.7,3.59 -0.44,2.52 -1.95,1.99 -4.62,2.62 -0.4,0.09 -1.39,0.03 -1.87,0.03 -0.45,0.01 -0.58,-0.07 -0.98,-0.09l-2.66 0.27c-2.12,0.33 -2.32,0.1 -3.76,0.14 -1.34,0.04 -2.25,0.13 -3.42,-1.14 -1.31,-1.43 -0.98,-2.7 -0.9,-3.95 0.09,-1.42 0.95,-1.48 2.18,-3.19 1.08,-1.49 2.37,-1.72 3.46,-3.07 0.51,-0.64 0.54,-1.07 1.02,-1.66 0.38,-0.49 0.86,-0.97 1.24,-1.49 0.55,-0.74 0.46,-0.83 1.29,-1.65 3.07,-3.01 1.86,-3.73 3.64,-4.75zm-54.75 -60.07c-0.25,0.9 -0.35,3.02 -2.01,1.97 -1.85,-1.17 -1.77,-0.19 -3.42,-0.98 -2.85,-1.37 -2.09,0.6 -3.53,-0.42 -0.75,-0.53 -0.85,-1 -1.7,-0.86 -2.23,0.38 -1.64,0.08 -2.58,0.97 0.08,1.01 0.33,0.88 0.18,2.02 -0.12,0.92 0.15,1.07 0.26,2.04 0.08,0.71 -0.23,1.37 -0.04,1.94 0.15,0.48 1.21,2.42 1.45,4.29 0.11,0.91 0.17,1.27 0.93,2.05 1.47,1.5 1.26,2.57 2.7,4.09l3.26 3.84c0.36,0.73 0.01,1.34 0.82,2.12 0.44,0.43 1.11,0.34 1.78,0.97l3.38 3.08c0.99,0.93 2.35,0.57 3.65,1.15 1.79,0.78 2.24,0.35 4.12,-1.1 1.68,-1.29 2.74,-1.59 2.45,-3.45 -0.37,-2.41 -1.42,-1.61 -2.57,-3.46 -3.07,-4.94 -0.86,-6.46 -2.62,-8.37 -1.82,-1.99 -5.09,-5.9 -5.26,-8.57 -0.05,-0.76 0.35,-2.91 -0.42,-3.87l-0.83 0.55zm15.54 -6.01c-1.58,-0.78 -2.29,-3.52 -4.74,-4.39 -3.61,-1.29 -1.12,-1.32 -4.07,-0.81 -0.63,0.11 -0.85,-0.03 -1.39,0.09 -2.11,0.44 -4.19,3.27 -3.92,4.55 0.19,0.85 0.59,0.82 1.08,1.24 0.46,0.39 0.31,0.77 0.42,1.27 0.85,3.56 1.89,1.8 3.04,5.67 0.38,1.27 1.13,1.82 1.87,2.83 1.66,2.29 1.11,2.41 1.7,3.25 0.82,1.18 1.37,0.32 2.48,1.51 1.47,1.56 2.91,3.3 4.86,3.82 0.72,0.19 0.43,0.37 1.32,0.31l2.83 -0.53c0.79,-0.18 0.74,0 1.4,-0.04 0.5,-0.18 3.67,-4.97 1.17,-7.01 -0.68,-0.56 -5.25,-7.08 -5.71,-7.91 -1.07,-1.96 0.21,-3.37 -1.27,-4.89 -0.58,0.38 -0.16,0.44 -1.07,1.04zm5.7 -9.61c2.32,2.34 2.51,4.57 3.21,5.88 1.18,2.19 0.86,3.41 2.05,5.7 1.19,2.28 1.24,3.59 0.9,5.54 -0.3,1.74 -1.24,3.25 -1.53,4.91 1.16,0.74 1.56,0.37 2.47,-0.76 1.95,-2.44 1.48,-2.7 3.13,-2.61 1,0.05 0.64,-0.24 1.47,-0.57 0.75,-0.31 1.83,0.16 2.64,-0.19 2,-0.89 1.32,-2.09 1.36,-2.43 0.11,-0.94 1.42,-1.36 1.63,-2.3 0.2,-0.85 0.15,-1.56 -0.32,-2.67 -0.63,-1.48 -0.17,-1.67 -0.58,-2.73 -0.55,-1.4 -0.64,-1.63 -0.21,-2.77 0.34,-0.89 0.48,-1.54 0.17,-2.57 -0.47,-1.54 -0.76,-1.27 -0.9,-2.92 -0.14,-1.7 -1.19,-3.28 -1.16,-5.56 0.01,-1.16 -0.28,-1.56 -0.14,-2.65 0.11,-0.84 0.27,-1.71 -0.78,-2.77 -2.3,-2.36 -7.21,0.91 -8.21,1.23 -1.57,0.5 -1.29,-0.38 -2.5,1.46 -0.4,0.62 -2.08,1.67 -2.79,2.04 -0.35,0.19 -4.68,0.84 -4.35,3.56 0.24,1.97 3.19,1.92 4.44,3.18zm-13.01 83.48c1.65,-0.47 0.87,0.37 2.23,-1.24 0.8,-0.95 1.5,-1.35 1.79,-2.39 0.15,-0.56 0.01,-0.83 0.14,-1.34 0.42,-1.72 1.29,-2.51 0.63,-3.84 -1.01,-2.03 -1.83,-1.86 -2.32,-4.43 -0.12,-0.67 -0.29,-0.88 -0.58,-1.48 -0.55,-1.13 -0.21,-1.49 -0.49,-2.71 -0.49,-2.07 0.96,-3.02 -1.13,-5.49 -0.97,-1.14 -1.48,-0.92 -2.38,-1.76 -1.18,-1.11 -4.72,-2.17 -6.23,-2.48 -0.71,-0.15 -0.58,-0.2 -1.1,-0.75 -1.34,-1.38 -1.03,-0.71 -2.63,-0.54 -4.24,0.46 -2.27,0.42 -2.6,4.46 -0.21,2.47 0.86,4.45 0.99,6.77 0.13,2.52 0.46,1.61 0.53,2.84l0.79 3.76c0.2,0.67 0.58,1.35 0.78,2.01 0.43,1.4 0.44,2.67 1.8,3.91 0.57,0.52 1.1,0.46 1.67,1 1.3,1.23 2.56,4.03 4.62,4.33 0.62,-0.61 0.13,-0.61 0.84,-1.22 1.41,0.23 0.8,1.12 2.65,0.59zm0.61 -28.2c0.76,0.98 1.86,-0.02 2.99,-0.7 2.26,-1.34 6.31,-5 8.39,-6.75 1.51,-1.26 4.21,-3.1 5.33,-4.57 0.7,-0.93 1.7,-1.45 2.44,-2.42 0.32,-0.43 0.43,-0.78 0.75,-1.22 0.82,-1.11 1.77,-2.87 2.82,-3.63 1.39,-1 1.56,-1.18 2.62,-2.28 1.11,-1.15 1.47,-1.14 1.93,-2.49 0.99,-2.96 3.85,-5.06 6.11,-7.15 1.58,-1.47 3.64,-2.94 5.58,-3.73 1.38,-0.56 1.79,-0.11 2.86,-0.03 3.55,0.24 1.02,5.02 0.1,7.01 -0.43,0.94 -0.44,1.78 -0.85,2.69 -0.76,1.71 -1.68,3.3 -2.42,5.13 -0.88,2.19 -3.05,1.16 -5.22,1.72 -1.71,0.44 -6.14,3.95 -7.08,5.25 -1.28,1.75 -1.74,0.92 -2.86,1.78 -0.42,0.33 -0.57,0.8 -0.96,1.21 -0.78,0.84 -2.04,1.42 -2.86,2.21 -2.87,2.76 -2.37,1.03 -4.03,0.7 -0.44,-0.09 -0.99,0.06 -1.44,0.37 -0.38,1.49 0.54,1.73 1.42,2.81 0.52,0.65 0.27,0.9 0.17,1.45l-0.23 2.94c-0.06,0.56 0.14,0.94 0.19,1.52 0.07,0.96 -0.07,2.28 1.51,2.56 1.96,0.35 4.53,-0.99 6.36,-2.54 1.07,-0.91 2.36,-1.38 2.58,-2.49 0.26,-1.29 1.36,-1.81 2.16,-0.44 -0.09,0.77 -0.14,0.72 -0.4,1.41 -0.42,1.15 -0.65,4.22 -0.58,5.47 0.08,1.27 0.19,3.19 0.69,4.21 1.09,2.25 2.61,3.23 4.73,4.11 0.41,0.17 0.77,0.42 1.24,0.63 0.89,0.4 3.49,0.7 3.69,1.76 -0.12,0.98 -1.01,1.36 -1.71,2.38 -0.65,0.93 -1.31,1.75 -2.52,1.93 -1.8,0.27 -1.33,0.49 -2.75,1.59 -1.28,0.98 -0.82,1.23 -1.77,2.21 -0.41,0.41 -0.88,0.7 -1.2,1.15 -0.74,1.08 -1.17,1.35 -1.38,2.47 -0.08,0.43 -0.22,0.74 -0.34,1.17 -0.54,2.07 -0.04,1.71 -0.22,2.7 -0.21,1.14 -1.37,0.89 -1.76,2.26 0.47,1.12 1.25,1.13 1.9,2.54 -0.17,0.59 -0.27,1.05 -0.36,1.62 -0.09,0.57 -0.02,1.04 -0.06,1.73 -0.07,1.33 -0.09,2.04 1.22,3.3 0.55,0.53 0.82,0.9 1.48,1.36 2.1,1.46 10.09,0.95 11.56,1.3l3.2 0.82c3.37,1.28 2.7,2.47 6.15,3.56 1.81,0.57 2.15,1.3 3.06,1.58 1.71,0.53 1.85,-0.08 2.74,-1.56 0.17,-0.27 0.36,-0.54 0.45,-0.8l0.35 -1.66c0.24,-1.91 2.82,-2.05 4.03,-5.19 0.15,-0.41 0.53,-2.68 1.25,-4.74 0.42,-1.2 0.99,-1.91 1.18,-3.13 0.39,-2.59 -0.43,-3.87 -0.35,-5.28 0.15,-2.78 -1.72,-6.63 -2.13,-8.74 -0.25,-1.29 -1.63,-2.24 -2.43,-3.42 -0.36,-0.52 -1.34,-3.02 -1.5,-3.67 -0.19,-0.75 0.29,-1.04 0.86,-1.6 0.45,-0.45 0.73,-0.92 1.21,-1.35 2.18,-2 4.53,-3.58 7.18,-4.57 2.05,-0.75 1.69,-1.44 1.64,-2.95 -0.06,-1.71 1.73,-1.62 2.12,-2.95 1.15,-3.91 -2.68,-2.15 -4.73,-1.92 -2.41,0.27 -0.93,-0.55 -3.56,0.93 -1.18,0.66 -2.48,0.95 -3.59,1.34 -1.83,0.64 -1.69,0.37 -3.32,0.08 -1.61,0.27 -0.38,4.02 -3.66,5.23 -0.85,0.32 -0.81,0.18 -1.45,-0.2 -0.77,-0.45 -0.67,-0.15 -1.48,-0.1 -0.62,0.03 -3.46,-0.96 -4.23,-1.24 -0.58,-0.21 -0.89,-0.12 -1.44,-0.3 -4.59,-1.6 -2.68,-4.54 -2.01,-6.23 0.21,-0.51 0.2,-0.88 0.38,-1.42 0.42,-1.23 0.67,-1.56 0.93,-2.93 0.21,-1.15 0.33,-1.58 0.42,-2.91l0.55 -5.86c0.11,-1.05 -0.13,-2.05 -0.08,-3 0.08,-1.69 2.57,-3.93 3.54,-5.29 0.65,-0.92 0.93,-1.88 1.46,-2.7 0.86,-0.72 2.35,0.1 3.13,-0.13 1.2,-0.37 1.53,-1.67 2.17,-2.45 0.5,-0.61 2.25,-1.98 2.96,-2.49 1.22,-0.89 1.84,-2.72 2.49,-4.06 0.79,-1.63 1.92,-5.28 2.18,-7.04 0.28,-1.87 -1.73,-2.64 -3.05,-3.57 -1.11,-0.77 -3.16,-0.66 -4.43,-0.27 -0.49,0.15 -1.03,0.49 -1.59,0.55l-1.5 0.05c-2.97,0.46 -7.22,-2.05 -8.58,1.44 -0.17,0.44 -0.55,0.95 -0.55,1.39 -0.01,0.42 0.25,1.04 0.21,1.53 -0.07,0.76 -1.28,1.77 -1.86,2.62 -0.72,1.06 -5.35,3.75 -6.67,4.31 -3.95,1.65 -10.86,7.13 -13.19,7.83 -1.79,0.53 -1.89,1.25 -2.92,2.27 -1.38,1.37 -1.69,2.59 -2.62,4.1 -0.65,1.04 -2,2.16 -2.89,3.91l-6.03 10.79c-0.5,1.15 -1.51,1.56 -2.15,2.56 -0.62,0.98 -1.36,1.69 -1.67,2.62z"/>
  <path class="fil6" d="M1377.16 1310.4l-607.42 -66.28 607.98 -62.96 612.14 64.62 -119.01 12.55 0 100.2 2.01 0c3.79,0 6.35,3.15 6.9,6.9l6.76 45.43c0.56,3.76 -3.1,6.91 -6.9,6.91l-31.62 0c-3.8,0 -7.47,-3.16 -6.91,-6.91l6.76 -45.43c0.55,-3.74 3.12,-6.9 6.9,-6.9l2.01 0 0 -98.71 -479.6 50.58z"/>
  <path class="fil7" d="M1187.03 983.68c0.84,-17.89 -4.99,-63.5 -66.47,-67.69 -21.8,-1.49 -57.15,0.09 -77.62,25.45 -16.86,20.88 -17.48,56.49 -16.69,80.53 1.04,31.79 0.34,60.42 23.91,84.49 20.46,20.89 81.85,22.03 106.32,8.61 8.15,4.27 3.03,8 6.78,7.58l24.11 -0.03 0.44 -111.8 -82.38 0 -0.1 28.52 54.92 0c-0.57,13.87 0.47,31.07 -10.62,43.72 -15.6,17.78 -63.32,19.37 -80.73,-1.72 -11.08,-13.42 -13.45,-37.95 -14.36,-60.36 -0.41,-9.88 0.76,-33.88 5.71,-51.89 7.46,-27.12 47.81,-27.98 55.14,-27.7 38.67,1.5 42.03,32.95 42.61,42.53l29.03 -0.24zm27.12 140.39l140.98 0 0 -26.33 -102.76 0.85 -1.13 -1.42c0.94,-6.16 87.93,-144.75 99.08,-163.06l0 -17.84 -132.77 0 0 26.33 92.29 -0.57c1.44,0 1.98,1.14 2.26,1.7 -0.28,1.14 -0.85,2.27 -1.7,3.12 -32.46,51.92 -64.44,103.56 -96.25,155.99l0 21.23zm167.33 0l65.39 0 0 -18.4 -18.4 0 0 -170.43 18.4 0 0 -18.97 -65.39 0 0 18.97 17.55 0 0 170.43 -17.55 0 0 18.4zm91.73 0l65.4 0 0 -18.4 -18.4 0 0 -170.43 18.4 0 0 -18.97 -65.4 0 0 18.97 17.56 0 0 170.43 -17.56 0 0 18.4zm231.32 0l30.29 0 -70.21 -207.8 -32.55 0 -67.1 207.8 30.29 0 13.03 -43.31 82.1 0 14.15 43.31zm-88.89 -67.38l30.86 -105.59c0.28,-0.57 0.56,-1.42 1.41,-1.42 0.85,0 1.13,0.57 1.41,1.13l32.85 105.88 -66.53 0z"/>
 </g>
</svg>
