<?xml version="1.0" standalone="no"?><!DOCTYPE svg PUBLIC "-//W3C//DTD SVG 1.1//EN" "http://www.w3.org/Graphics/SVG/1.1/DTD/svg11.dtd"><svg t="1743575301374" class="icon" viewBox="0 0 1024 1024" version="1.1" xmlns="http://www.w3.org/2000/svg" p-id="1333" xmlns:xlink="http://www.w3.org/1999/xlink" width="200" height="200"><path d="M832 32H192A160.192 160.192 0 0 0 32 192v512A160.192 160.192 0 0 0 192 864h178.752l118.592 118.592a32 32 0 0 0 45.248 0l118.656-118.592H832a160.192 160.192 0 0 0 160-160V192A160.192 160.192 0 0 0 832 32zM928 704a96.128 96.128 0 0 1-96 96h-192a32 32 0 0 0-22.592 9.344L512 914.752l-105.408-105.408A32 32 0 0 0 384 800H192A96.128 96.128 0 0 1 96 704V192A96.128 96.128 0 0 1 192 96h640A96.128 96.128 0 0 1 928 192z" p-id="1334"></path><path d="M704 512H320a32 32 0 0 0 0 64h384a32 32 0 0 0 0-64zM704 320H320a32 32 0 0 0 0 64h384a32 32 0 0 0 0-64z" p-id="1335"></path></svg>