<svg width="25" height="24" viewBox="0 0 25 24" fill="none" xmlns="http://www.w3.org/2000/svg">
<g id="24pt/&#229;&#138;&#159;&#232;&#131;&#189;">
<g id="&#231;&#188;&#150;&#231;&#187;&#132; 2 (1) 1" clip-path="url(#clip0_151_1765)">
<g id="Page-1">
<g id="&#229;&#186;&#183;&#229;&#188;&#152;-&#230;&#179;&#168;&#229;&#134;&#140;">
<g id="&#231;&#188;&#150;&#231;&#187;&#132;-4">
<g id="&#231;&#188;&#150;&#231;&#187;&#132;-2">
<g id="&#232;&#129;&#140;&#228;&#189;&#141;">
<path id="&#232;&#183;&#175;&#229;&#190;&#132;" d="M13.0977 13.4355H18.4977" stroke="#4E5969" stroke-width="1.5" stroke-linecap="round" stroke-linejoin="round"/>
<path id="&#232;&#183;&#175;&#229;&#190;&#132;_2" d="M13.0977 9.93555H18.4977" stroke="#4E5969" stroke-width="1.5" stroke-linecap="round" stroke-linejoin="round"/>
<path id="&#231;&#159;&#169;&#229;&#189;&#162;" d="M19.3978 4.68555H4.99775C4.00364 4.68555 3.19775 5.46905 3.19775 6.43555V16.9355C3.19775 17.902 4.00364 18.6855 4.99775 18.6855H19.3978C20.3919 18.6855 21.1978 17.902 21.1978 16.9355V6.43555C21.1978 5.46905 20.3919 4.68555 19.3978 4.68555Z" stroke="#4E5969" stroke-width="1.5"/>
<path id="&#230;&#164;&#173;&#229;&#156;&#134;&#229;&#189;&#162;" d="M8.14785 10.8105C8.89344 10.8105 9.49785 10.2229 9.49785 9.49805C9.49785 8.77317 8.89344 8.18555 8.14785 8.18555C7.40227 8.18555 6.79785 8.77317 6.79785 9.49805C6.79785 10.2229 7.40227 10.8105 8.14785 10.8105Z" stroke="#4E5969" stroke-width="1.5"/>
<path id="&#232;&#183;&#175;&#229;&#190;&#132;_3" fill-rule="evenodd" clip-rule="evenodd" d="M5.89771 14.3105C5.89771 13.344 6.70359 12.5605 7.69771 12.5605H8.59771C9.59182 12.5605 10.3977 13.344 10.3977 14.3105V15.1855H5.89771V14.3105Z" stroke="#4E5969" stroke-width="1.5"/>
</g>
</g>
</g>
</g>
</g>
</g>
</g>
<defs>
<clipPath id="clip0_151_1765">
<rect width="20" height="16" fill="white" transform="translate(2.5 4)"/>
</clipPath>
</defs>
</svg>
