<svg width="24" height="24" viewBox="0 0 24 24" fill="none" xmlns="http://www.w3.org/2000/svg">
<g id="24pt/&#233;&#128;&#154;&#232;&#174;&#175;&#229;&#189;&#149;" clip-path="url(#clip0_151_1732)">
<path id="Vector" d="M20 5V19C20 19.5304 19.7752 20.0391 19.3752 20.4142C18.9751 20.7893 18.4325 21 17.8667 21H6.13333C5.56754 21 5.02492 20.7893 4.62484 20.4142C4.22476 20.0391 4 19.5304 4 19V5C4 4.46957 4.22476 3.96086 4.62484 3.58579C5.02492 3.21071 5.56754 3 6.13333 3H17.8667C18.4325 3 18.9751 3.21071 19.3752 3.58579C19.7752 3.96086 20 4.46957 20 5Z" stroke="#4E5969" stroke-width="1.5" stroke-linecap="round"/>
<path id="Vector_2" d="M9 16H16" stroke="#4E5969" stroke-width="1.5" stroke-linecap="round" stroke-linejoin="round"/>
<path id="Vector_3" d="M10 9.5C10 10.163 10.2634 10.7989 10.7322 11.2678C11.2011 11.7366 11.837 12 12.5 12C13.163 12 13.7989 11.7366 14.2678 11.2678C14.7366 10.7989 15 10.163 15 9.5C15 8.83696 14.7366 8.20107 14.2678 7.73223C13.7989 7.26339 13.163 7 12.5 7C11.837 7 11.2011 7.26339 10.7322 7.73223C10.2634 8.20107 10 8.83696 10 9.5Z" stroke="#4E5969" stroke-width="1.5" stroke-linecap="round" stroke-linejoin="round"/>
<path id="Vector_4" d="M2.5 7H5.5" stroke="#4E5969" stroke-width="1.5" stroke-linecap="round" stroke-linejoin="round"/>
<path id="Vector_5" d="M2.5 12H5.5" stroke="#4E5969" stroke-width="1.5" stroke-linecap="round" stroke-linejoin="round"/>
<path id="Vector_6" d="M2.5 17H5.5" stroke="#4E5969" stroke-width="1.5" stroke-linecap="round" stroke-linejoin="round"/>
</g>
<defs>
<clipPath id="clip0_151_1732">
<rect width="24" height="24" fill="white"/>
</clipPath>
</defs>
</svg>
