<svg width="24" height="24" viewBox="0 0 24 24" fill="none" xmlns="http://www.w3.org/2000/svg">
<g id="24pt/&#228;&#191;&#161;&#230;&#129;&#175;">
<path id="Vector" d="M20.1 4H3.9C3.40294 4 3 4.39175 3 4.875V17.125C3 17.6083 3.40294 18 3.9 18H20.1C20.5971 18 21 17.6083 21 17.125V4.875C21 4.39175 20.5971 4 20.1 4Z" stroke="#4E5969" stroke-width="1.5" stroke-linejoin="round"/>
<path id="Vector_2" d="M18 11C18 9.89543 17.1046 9 16 9V9C14.8954 9 14 9.89543 14 11V11C14 12.1046 14.8954 13 16 13V13C17.1046 13 18 12.1046 18 11V11Z" stroke="#4E5969" stroke-width="1.5" stroke-linejoin="round"/>
<path id="Vector_3" d="M6 9H9" stroke="#4E5969" stroke-width="1.5" stroke-linecap="round" stroke-linejoin="round"/>
<path id="Vector_4" d="M6 13H12" stroke="#4E5969" stroke-width="1.5" stroke-linecap="round" stroke-linejoin="round"/>
</g>
</svg>
